<svg width="216" height="35" viewBox="0 0 216 35" fill="none" xmlns="http://www.w3.org/2000/svg">
<path d="M8.90232 30.9142V30.5305C7.65907 30.5305 6.77128 29.8222 7.30448 28.553L9.25779 23.8599H17.7811L19.4682 27.963C20.0598 29.3795 19.9714 30.5314 18.4328 30.5314H17.6334V30.9151H25.9498V30.5314C24.4705 30.5314 23.5526 29.8822 22.7241 27.9339L14.94 9.39404H9.76093V9.77772C10.9449 9.77772 12.0105 10.0732 12.4835 11.2533L13.3121 13.2608L6.86059 28.6703C6.41669 29.7332 5.26274 30.5305 4.28564 30.5305V30.9142H8.90232ZM13.519 13.7044L17.6034 23.4753H9.43553L13.5199 13.7044H13.519Z" fill="black"/>
<mask id="mask0_104_426" style="mask-type:luminance" maskUnits="userSpaceOnUse" x="1" y="21" width="24" height="14">
<path d="M24.711 21.5015H1.44629V34.2818H24.711V21.5015Z" fill="white"/>
</mask>
<g mask="url(#mask0_104_426)">
<path d="M20.6657 28.5471C20.8072 28.5886 20.954 28.6203 21.1025 28.6415C21.2493 28.6618 21.3987 28.6732 21.5499 28.6732C22.4218 28.6732 23.2106 28.3204 23.7818 27.7506C24.353 27.1809 24.7067 26.3932 24.7067 25.5227C24.7067 24.6522 24.353 23.8645 23.7818 23.2947C23.2106 22.725 22.4209 22.3722 21.5499 22.3722C21.0654 22.3722 20.6064 22.4815 20.1953 22.6765C19.7691 22.8793 19.395 23.1739 19.1006 23.5355C18.2075 24.616 17.4797 25.7494 16.7529 26.8819C15.255 29.2157 13.7579 31.5468 10.8337 33.3673C10.5666 33.5128 10.2872 33.6389 9.99807 33.7448C9.3287 33.99 8.60449 34.1232 7.85023 34.1232C6.12594 34.1232 4.56523 33.4255 3.43516 32.2983C2.30508 31.1702 1.60652 29.6126 1.60652 27.8918C1.60652 26.171 2.30508 24.6133 3.43516 23.4853C4.50422 22.4189 5.95793 21.7371 7.57169 21.6665C7.44435 21.7583 7.36212 21.9073 7.36212 22.0758C7.36212 22.3545 7.58849 22.5803 7.86791 22.5803C8.14734 22.5803 8.3737 22.3545 8.3737 22.0758C8.3737 21.8332 8.20216 21.6304 7.97402 21.5819V21.5025L7.85111 21.5007C6.08349 21.5007 4.48211 22.216 3.32374 23.3724C2.16537 24.5287 1.44824 26.126 1.44824 27.8909C1.44824 29.6558 2.16449 31.2531 3.32374 32.4094C4.48211 33.5657 6.08261 34.281 7.85111 34.281C8.62483 34.281 9.36672 34.1434 10.0538 33.893C10.7656 33.6328 11.4191 33.2491 11.9868 32.7693C14.2593 31.0591 15.5724 29.0146 16.8873 26.9665C17.6124 25.8367 18.3383 24.706 19.2244 23.6343L19.1633 23.584L19.2252 23.6343C19.5056 23.2912 19.8601 23.0107 20.2651 22.8185C20.6551 22.6332 21.091 22.53 21.5517 22.53C22.3794 22.53 23.1292 22.8652 23.6713 23.4068C24.2133 23.9483 24.5493 24.6963 24.5493 25.5218C24.5493 26.3474 24.2142 27.0962 23.6713 27.6377C23.1292 28.1793 22.3794 28.5136 21.5517 28.5136C21.4067 28.5136 21.2643 28.503 21.1264 28.4836C20.984 28.4633 20.8461 28.4333 20.7117 28.3945L20.6675 28.5471H20.6657Z" fill="black"/>
</g>
<path d="M0.948242 0.717773V1.08734C2.48596 1.08734 2.88387 1.42779 3.5108 2.76315L12.707 21.7625L13.1341 21.422L19.682 2.79049C20.1374 1.42691 20.7069 1.08645 22.3012 1.08645V0.717773H17.6606V1.08734C19.4539 1.08734 19.7386 1.54157 19.3115 2.76315L14.1298 17.5024L6.87008 2.53559C6.27232 1.25756 6.92667 1.05911 8.83489 1.05911V0.717773H0.948242Z" fill="black"/>
<path d="M39.8059 19.5112L41.149 22.3866H42.5064L37.9436 12.613H37.2433L33.1006 22.3866H33.7452L34.9761 19.5112H39.8068H39.8059ZM39.5114 18.8824H35.2431L37.2583 14.1768H37.314L39.5114 18.8824Z" fill="black"/>
<path d="M55.3022 12.614V20.0837H55.2447L47.4766 12.4473H47.4067V22.3884H48.0496V14.9187H48.1071L55.8752 22.5551H55.9451V12.614H55.3022Z" fill="black"/>
<path d="M65.7303 22.3875V13.3813H69.483V12.613H60.7051V13.3813H64.4578V22.3866H65.7312L65.7303 22.3875Z" fill="black"/>
<path d="M73.2617 17.4994C73.2617 18.0215 73.3616 18.5781 73.5624 19.1699C73.764 19.7608 74.0788 20.3077 74.5076 20.8104C74.9374 21.3132 75.483 21.7295 76.1453 22.0602C76.8085 22.3892 77.6016 22.5542 78.5257 22.5542C79.1508 22.5542 79.7176 22.4774 80.2261 22.3248C80.7354 22.1705 81.1935 21.9641 81.5984 21.7039C82.0043 21.4428 82.3571 21.143 82.656 20.8034C82.9549 20.4629 83.1998 20.1048 83.3908 19.7282C83.5827 19.3507 83.7268 18.9723 83.8241 18.5904C83.9223 18.2085 83.9718 17.8442 83.9718 17.4985C83.9718 16.9781 83.8639 16.4224 83.649 15.8315C83.435 15.2397 83.1043 14.6928 82.656 14.191C82.2077 13.6873 81.64 13.271 80.9538 12.9412C80.2685 12.6104 79.4586 12.4446 78.5257 12.4446C77.5928 12.4446 76.8085 12.6078 76.1453 12.9332C75.483 13.2578 74.9374 13.6697 74.5076 14.168C74.0788 14.6672 73.764 15.2132 73.5624 15.8086C73.3616 16.4039 73.2617 16.9675 73.2617 17.4976V17.4994ZM74.6341 17.4994C74.6341 16.8476 74.734 16.2496 74.9347 15.7062C75.1346 15.1612 75.4105 14.6937 75.7597 14.3021C76.1099 13.9114 76.5228 13.6071 76.9977 13.3892C77.4743 13.1705 77.9925 13.0602 78.5522 13.0602C79.1119 13.0602 79.6248 13.1696 80.1147 13.3892C80.6045 13.6071 81.0343 13.9122 81.4021 14.3021C81.7709 14.6928 82.0618 15.1612 82.2758 15.7062C82.4907 16.2504 82.5985 16.8485 82.5985 17.4994C82.5985 18.1503 82.4907 18.7501 82.2758 19.2943C82.0618 19.8385 81.7709 20.3059 81.4021 20.6984C81.0334 21.0892 80.6045 21.3943 80.1147 21.6139C79.6248 21.8318 79.104 21.9412 78.5522 21.9412C78.0004 21.9412 77.4734 21.8327 76.9977 21.6139C76.522 21.3952 76.1099 21.09 75.7597 20.6984C75.4096 20.3068 75.1346 19.8385 74.9347 19.2943C74.734 18.7492 74.6341 18.1512 74.6341 17.4994Z" fill="black"/>
<path d="M97.0454 12.614V20.0837H96.9879L89.2198 12.4473H89.1499V22.3884H89.7928V14.9187H89.8502L97.6184 22.5551H97.6882V12.614H97.0454Z" fill="black"/>
<path d="M104.408 12.6138V22.3873H105.682V12.6138H104.408Z" fill="black"/>
<path d="M111.421 17.4994C111.421 18.0215 111.521 18.5781 111.722 19.1699C111.924 19.7608 112.238 20.3077 112.667 20.8104C113.097 21.3132 113.643 21.7295 114.305 22.0602C114.968 22.3892 115.761 22.5542 116.685 22.5542C117.311 22.5542 117.877 22.4774 118.386 22.3248C118.895 22.1705 119.353 21.9641 119.758 21.7039C120.164 21.4428 120.517 21.143 120.816 20.8034C121.115 20.4629 121.359 20.1048 121.55 19.7282C121.742 19.3507 121.887 18.9723 121.984 18.5904C122.082 18.2085 122.131 17.8442 122.131 17.4985C122.131 16.9781 122.024 16.4224 121.809 15.8315C121.595 15.2397 121.264 14.6928 120.816 14.191C120.367 13.6873 119.8 13.271 119.113 12.9412C118.428 12.6104 117.618 12.4446 116.685 12.4446C115.752 12.4446 114.968 12.6078 114.305 12.9332C113.643 13.2578 113.097 13.6697 112.667 14.168C112.238 14.6672 111.924 15.2132 111.722 15.8086C111.521 16.4039 111.421 16.9675 111.421 17.4976V17.4994ZM112.794 17.4994C112.794 16.8476 112.894 16.2496 113.094 15.7062C113.294 15.1612 113.57 14.6937 113.919 14.3021C114.27 13.9114 114.683 13.6071 115.157 13.3892C115.634 13.1705 116.152 13.0602 116.712 13.0602C117.272 13.0602 117.784 13.1696 118.274 13.3892C118.764 13.6071 119.194 13.9122 119.562 14.3021C119.931 14.6928 120.221 15.1612 120.435 15.7062C120.65 16.2504 120.758 16.8485 120.758 17.4994C120.758 18.1503 120.65 18.7501 120.435 19.2943C120.221 19.8385 119.931 20.3059 119.562 20.6984C119.193 21.0892 118.764 21.3943 118.274 21.6139C117.784 21.8318 117.264 21.9412 116.712 21.9412C116.16 21.9412 115.633 21.8327 115.157 21.6139C114.682 21.3952 114.27 21.09 113.919 20.6984C113.569 20.3068 113.294 19.8385 113.094 19.2943C112.894 18.7492 112.794 18.1512 112.794 17.4994Z" fill="black"/>
<path d="M133.749 12.6138L137.85 22.3873H138.69L142.667 12.6138H141.938L138.676 20.6568H138.619L135.261 12.6138H133.749Z" fill="black"/>
<path d="M147.565 12.6139V22.3875H153.893V21.6192H148.838V17.5285H153.178V16.8855H148.838V13.3813H153.893V12.613H147.565V12.6139Z" fill="black"/>
<path d="M166.688 12.614V20.0837H166.631L158.863 12.4473H158.793V22.3884H159.436V14.9187H159.493L167.261 22.5551H167.331V12.614H166.688Z" fill="black"/>
<path d="M172.931 12.6138V18.6167C172.931 18.9986 172.968 19.4202 173.043 19.8806C173.118 20.3411 173.295 20.7697 173.574 21.1648C173.854 21.5609 174.269 21.8916 174.819 22.1571C175.37 22.4217 176.122 22.554 177.074 22.554C177.672 22.554 178.202 22.4605 178.664 22.2744C179.125 22.0883 179.512 21.8325 179.825 21.5062C180.138 21.1807 180.374 20.8015 180.532 20.3684C180.69 19.9362 180.77 19.4732 180.77 18.9792V12.6138H180.155V18.5197C180.155 18.7243 180.149 18.9316 180.14 19.1406C180.131 19.3506 180.103 19.5596 180.056 19.7695C180.01 19.9794 179.937 20.1867 179.839 20.3922C179.741 20.5968 179.598 20.8015 179.412 21.0061C179.077 21.3686 178.699 21.6156 178.279 21.747C177.859 21.8766 177.42 21.9419 176.962 21.9419C176.57 21.9419 176.222 21.881 175.919 21.7602C175.616 21.6385 175.328 21.4577 175.059 21.216C174.844 21.0299 174.68 20.8438 174.569 20.6577C174.456 20.4716 174.372 20.2881 174.317 20.1064C174.261 19.9239 174.229 19.7395 174.22 19.5534C174.21 19.3673 174.204 19.1812 174.204 18.9951V12.6138H172.931Z" fill="black"/>
<path d="M194.614 20.5866C193.662 21.48 192.533 21.9263 191.227 21.9263C190.498 21.9263 189.854 21.8011 189.295 21.5497C188.735 21.2992 188.268 20.9632 187.895 20.5442C187.522 20.1253 187.239 19.6419 187.048 19.0924C186.857 18.5429 186.762 17.9696 186.762 17.3743C186.762 16.741 186.862 16.1615 187.063 15.6358C187.263 15.1102 187.545 14.6568 187.908 14.274C188.273 13.8921 188.705 13.594 189.204 13.3805C189.703 13.1662 190.247 13.0586 190.836 13.0586C191.237 13.0586 191.603 13.1054 191.934 13.198C192.266 13.2915 192.559 13.4123 192.817 13.5622C193.073 13.7104 193.284 13.8798 193.447 14.0712C193.61 14.2626 193.725 14.4548 193.79 14.6498H194.827C194.688 14.334 194.507 14.0412 194.288 13.7713C194.07 13.5005 193.796 13.2676 193.47 13.0727C193.143 12.8769 192.76 12.7234 192.321 12.6114C191.882 12.5003 191.383 12.4438 190.823 12.4438C190.011 12.4438 189.272 12.5603 188.605 12.7931C187.938 13.0251 187.366 13.3576 186.89 13.7907C186.413 14.2237 186.044 14.7441 185.782 15.3545C185.522 15.9648 185.392 16.6466 185.392 17.3999C185.392 18.0517 185.497 18.6876 185.706 19.3076C185.917 19.9268 186.24 20.4754 186.679 20.9544C187.118 21.4333 187.677 21.8196 188.359 22.1142C189.041 22.407 189.853 22.5534 190.794 22.5534C191.391 22.5534 191.925 22.497 192.398 22.3859C192.869 22.2747 193.28 22.1371 193.63 21.974C193.98 21.8117 194.272 21.637 194.506 21.45C194.739 21.2639 194.917 21.1008 195.038 20.9614L194.618 20.5848L194.614 20.5866Z" fill="black"/>
<path d="M208.039 20.5866C207.087 21.48 205.958 21.9263 204.652 21.9263C203.923 21.9263 203.279 21.8011 202.72 21.5497C202.16 21.2992 201.693 20.9632 201.32 20.5442C200.947 20.1253 200.664 19.6419 200.473 19.0924C200.282 18.5429 200.187 17.9696 200.187 17.3743C200.187 16.741 200.287 16.1615 200.488 15.6358C200.687 15.1102 200.97 14.6568 201.333 14.274C201.698 13.8921 202.13 13.594 202.628 13.3805C203.128 13.1662 203.672 13.0586 204.261 13.0586C204.662 13.0586 205.028 13.1054 205.359 13.198C205.691 13.2915 205.984 13.4123 206.241 13.5622C206.498 13.7104 206.708 13.8798 206.872 14.0712C207.035 14.2626 207.15 14.4548 207.215 14.6498H208.252C208.113 14.334 207.932 14.0412 207.713 13.7713C207.494 13.5005 207.221 13.2676 206.895 13.0727C206.568 12.8769 206.185 12.7234 205.745 12.6114C205.307 12.5003 204.808 12.4438 204.247 12.4438C203.436 12.4438 202.697 12.5603 202.03 12.7931C201.363 13.0251 200.791 13.3576 200.314 13.7907C199.838 14.2237 199.469 14.7441 199.207 15.3545C198.946 15.9648 198.816 16.6466 198.816 17.3999C198.816 18.0517 198.922 18.6876 199.131 19.3076C199.342 19.9268 199.665 20.4754 200.104 20.9544C200.542 21.4333 201.102 21.8196 201.784 22.1142C202.466 22.407 203.277 22.5534 204.219 22.5534C204.816 22.5534 205.35 22.497 205.822 22.3859C206.294 22.2747 206.705 22.1371 207.055 21.974C207.405 21.8117 207.697 21.637 207.93 21.45C208.164 21.2639 208.342 21.1008 208.463 20.9614L208.043 20.5848L208.039 20.5866Z" fill="black"/>
<path d="M213.778 12.6138V22.3873H215.052V12.6138H213.778Z" fill="black"/>
</svg>
