<svg width="25" height="25" viewBox="0 0 25 25" fill="none" xmlns="http://www.w3.org/2000/svg">
<path fill-rule="evenodd" clip-rule="evenodd" d="M16.3335 3.31006H8.3335C5.57208 3.31006 3.3335 5.54864 3.3335 8.31006V16.3101C3.3335 19.0715 5.57208 21.3101 8.3335 21.3101H16.3335C19.0949 21.3101 21.3335 19.0715 21.3335 16.3101V8.31006C21.3335 5.54864 19.0949 3.31006 16.3335 3.31006ZM19.5835 16.3101C19.578 18.1027 18.1261 19.5546 16.3335 19.5601H8.3335C6.54085 19.5546 5.08899 18.1027 5.0835 16.3101V8.31006C5.08899 6.51741 6.54085 5.06555 8.3335 5.06006H16.3335C18.1261 5.06555 19.578 6.51741 19.5835 8.31006V16.3101ZM17.0835 8.56006C17.6358 8.56006 18.0835 8.11234 18.0835 7.56006C18.0835 7.00778 17.6358 6.56006 17.0835 6.56006C16.5312 6.56006 16.0835 7.00778 16.0835 7.56006C16.0835 8.11234 16.5312 8.56006 17.0835 8.56006ZM12.3335 7.81006C9.84822 7.81006 7.8335 9.82478 7.8335 12.3101C7.8335 14.7954 9.84822 16.8101 12.3335 16.8101C14.8188 16.8101 16.8335 14.7954 16.8335 12.3101C16.8362 11.1158 16.3629 9.96963 15.5184 9.12514C14.6739 8.28065 13.5278 7.8074 12.3335 7.81006ZM9.5835 12.3101C9.5835 13.8289 10.8147 15.0601 12.3335 15.0601C13.8523 15.0601 15.0835 13.8289 15.0835 12.3101C15.0835 10.7913 13.8523 9.56006 12.3335 9.56006C10.8147 9.56006 9.5835 10.7913 9.5835 12.3101Z" fill="black"/>
</svg>
