<svg width="50" height="50" viewBox="0 0 50 50" fill="none" xmlns="http://www.w3.org/2000/svg">
<path d="M41.6101 38.0579L40.1035 19.7337C40.0931 19.5821 40.03 19.4403 39.9268 19.3368C39.8235 19.2333 39.6878 19.1758 39.5469 19.1757H38.6474V17.1013C38.6474 16.4401 38.1471 15.9003 37.5231 15.9003H37.0306C36.5044 9.84502 31.7709 5.08899 26.0232 5.08899C20.2755 5.08899 15.542 9.84441 15.0158 15.9003H14.4795C13.8555 15.9003 13.3551 16.4401 13.3551 17.1013V19.1757H12.4556C12.1633 19.1757 11.9216 19.4183 11.8991 19.7337L10.3924 38.0579C10.2688 39.5561 10.741 41.0543 11.6798 42.1643C12.1475 42.7139 12.7156 43.1528 13.3484 43.4535C13.9813 43.7542 14.665 43.91 15.3565 43.9112H36.6405C38.0403 43.9112 39.3783 43.2743 40.3227 42.1643C40.7885 41.6128 41.1434 40.9633 41.3649 40.2565C41.5865 39.5498 41.67 38.8012 41.6101 38.0579ZM27.1678 32.7262H24.8348V27.8495H27.1678V32.7262ZM27.73 26.6364H24.2726C23.9578 26.6364 23.7104 26.9033 23.7104 27.2429V29.8572H20.3598C18.5665 29.8572 16.9755 28.4803 16.5933 26.5879L15.3284 20.3888H36.6742L35.4093 26.5879C35.027 28.4803 33.4361 29.8572 31.6427 29.8572H28.2921V27.2429C28.2921 26.9033 28.0448 26.6364 27.73 26.6364ZM37.5231 19.1757H35.5161V17.1134H37.5231V19.1757ZM26.0232 6.30211C31.1503 6.30211 35.3818 10.5147 35.9035 15.9003H35.5161C34.8977 15.9003 34.3918 16.4401 34.3918 17.1013V19.1757H17.6108V17.1013C17.6108 16.4401 17.1048 15.9003 16.4864 15.9003H16.1429C16.6646 10.5141 20.8962 6.30211 26.0232 6.30211ZM14.4795 17.1134H16.4864V19.1757H14.4795V17.1134ZM39.4907 41.3454C39.1294 41.7729 38.6891 42.1141 38.1982 42.3471C37.7073 42.5801 37.1767 42.6996 36.6405 42.6981H15.3565C14.2658 42.6981 13.2539 42.2128 12.5119 41.3454C12.1471 40.9202 11.8695 40.4169 11.6971 39.8682C11.5247 39.3196 11.4613 38.7378 11.5112 38.161L12.9728 20.3888H14.1759L15.4914 26.8487C15.9917 29.2931 18.038 31.0703 20.3598 31.0703H23.7104V33.3328C23.7104 33.6664 23.9578 33.9393 24.2726 33.9393H27.73C28.0448 33.9393 28.2921 33.6664 28.2921 33.3328V31.0703H31.6427C33.9645 31.0703 36.0108 29.2931 36.5112 26.8487L37.8267 20.3888H39.0297L40.4858 38.161C40.5869 39.3438 40.2328 40.472 39.4907 41.3454Z" fill="#232F45"/>
<path d="M26.0009 29.7659C26.3072 29.7659 26.5554 29.498 26.5554 29.1676C26.5554 28.8371 26.3072 28.5692 26.0009 28.5692C25.6946 28.5692 25.4463 28.8371 25.4463 29.1676C25.4463 29.498 25.6946 29.7659 26.0009 29.7659Z" fill="#232F45"/>
</svg>
