<svg width="50" height="50" viewBox="0 0 50 50" fill="none" xmlns="http://www.w3.org/2000/svg">
<path d="M40.4417 42.598H36.4719C36.2733 42.598 36.0828 42.5191 35.9423 42.3786C35.8018 42.2381 35.7229 42.0476 35.7229 41.849V30.0706C33.9515 31.7559 30.6783 35.0441 28.435 38.3361C27.6075 39.4929 26.9328 40.7516 26.4276 42.0812C26.3788 42.2307 26.2842 42.3611 26.1572 42.4539C26.0301 42.5467 25.8771 42.5971 25.7198 42.598H10.7693C10.2883 42.6044 9.81212 42.5019 9.37631 42.2982C8.94049 42.0946 8.55636 41.7951 8.25264 41.422C7.86892 40.9029 7.60507 40.3051 7.48008 39.6718C7.3551 39.0385 7.37209 38.3853 7.52984 37.7593C7.5404 37.7089 7.55674 37.6599 7.57852 37.6133C9.15146 33.9843 11.6307 31.2728 14.3684 30.1306C14.536 30.0605 14.7235 30.0538 14.8957 30.1117C15.068 30.1695 15.2133 30.2881 15.3047 30.4451C15.8826 31.3247 16.6623 32.0534 17.5789 32.5706C18.4955 33.0879 19.5223 33.3787 20.574 33.4188H20.5965C21.2556 33.4188 23.8247 32.4862 30.9929 21.1573C34.9776 14.8843 38.4044 8.51762 38.4418 8.45395C38.4989 8.34974 38.5806 8.26111 38.6798 8.19582C38.7791 8.13053 38.8928 8.09057 39.0111 8.07944C39.1307 8.06491 39.2521 8.07945 39.3649 8.12183C39.4776 8.16421 39.5786 8.23317 39.659 8.32287C39.7788 8.45769 42.6026 11.6935 42.6026 17.1725C42.5866 20.4546 42.1114 23.7182 41.1908 26.8686V41.849C41.1908 42.0476 41.1118 42.2381 40.9714 42.3786C40.8309 42.5191 40.6404 42.598 40.4417 42.598ZM37.2209 41.0999H39.6927V26.7338C39.6926 26.6551 39.704 26.5769 39.7264 26.5016C40.6229 23.4608 41.0868 20.3089 41.1046 17.1388C41.1185 14.6924 40.4534 12.2901 39.1834 10.1992C38.0374 12.3002 35.3147 17.1575 32.2737 21.9513C24.8397 33.6809 22.0046 34.9767 20.5066 34.9168C19.318 34.8736 18.1535 34.5686 17.0964 34.0235C16.0392 33.4784 15.1154 32.7067 14.3909 31.7634C12.2337 32.8869 10.2712 35.1602 8.95297 38.1301C8.85349 38.5274 8.8408 38.9414 8.91577 39.344C8.99074 39.7467 9.1516 40.1284 9.3874 40.4633C9.55129 40.6708 9.76189 40.8366 10.0021 40.9473C10.2422 41.0579 10.5051 41.1102 10.7693 41.0999H25.2029C25.7367 39.8291 26.4047 38.6188 27.1953 37.4897C30.4985 32.651 35.7529 27.9921 35.9738 27.7974C36.0823 27.7007 36.2166 27.6377 36.3603 27.6161C36.504 27.5944 36.6508 27.615 36.783 27.6753C36.9152 27.7357 37.027 27.8331 37.1047 27.9559C37.1825 28.0786 37.2229 28.2213 37.2209 28.3666V41.0999Z" fill="#232F45"/>
<path d="M40.4411 42.5977H36.4712C36.2726 42.5977 36.0821 42.5188 35.9416 42.3784C35.8011 42.2379 35.7222 42.0474 35.7222 41.8487V37.9126C35.7222 37.714 35.8011 37.5235 35.9416 37.383C36.0821 37.2425 36.2726 37.1636 36.4712 37.1636H40.4411C40.6397 37.1636 40.8302 37.2425 40.9707 37.383C41.1112 37.5235 41.1901 37.714 41.1901 37.9126V41.8487C41.1901 42.0474 41.1112 42.2379 40.9707 42.3784C40.8302 42.5188 40.6397 42.5977 40.4411 42.5977ZM37.2203 41.0997H39.692V38.6617H37.2203V41.0997ZM15.1991 31.6209C14.9471 31.6274 14.6953 31.6009 14.4501 31.5422C14.2584 31.4891 14.0957 31.362 13.9977 31.1888C13.8997 31.0157 13.8745 30.8108 13.9276 30.6191C13.9808 30.4274 14.1079 30.2646 14.281 30.1666C14.4542 30.0687 14.6591 30.0435 14.8508 30.0966C14.9332 30.1153 18.1016 30.7408 23.09 24.8535C26.6891 20.6066 29.9473 14.1912 31.5689 10.7644C31.9026 10.0499 32.3766 9.40983 32.9627 8.88226C33.5489 8.35468 34.2351 7.9504 34.9807 7.69347C35.6742 7.45509 36.4091 7.36135 37.1402 7.41804C37.8713 7.47472 38.583 7.68062 39.2314 8.02303C39.32 8.06725 39.4062 8.116 39.4898 8.16909C39.6559 8.27443 39.7738 8.44085 39.8183 8.63242C39.8627 8.82399 39.83 9.02534 39.7272 9.19301C39.6244 9.36067 39.4599 9.4812 39.269 9.52857C39.0781 9.57593 38.8763 9.54634 38.7071 9.44617L38.5385 9.3488C38.0677 9.10223 37.5514 8.95446 37.0214 8.91453C36.4914 8.8746 35.9588 8.94336 35.4563 9.1166C34.9033 9.30504 34.394 9.60319 33.959 9.99316C33.524 10.3831 33.1722 10.8569 32.9246 11.3861C30.906 15.6743 27.7564 21.6627 24.251 25.8122C19.8842 30.9542 16.6073 31.6209 15.1991 31.6209Z" fill="#232F45"/>
</svg>
