<svg width="50" height="50" viewBox="0 0 50 50" fill="none" xmlns="http://www.w3.org/2000/svg">
<path d="M41.8139 15.536H35.2277V13.4226C35.2277 10.9299 33.1997 8.90186 30.707 8.90186H22.5145C20.0219 8.90186 17.9938 10.9299 17.9938 13.4226V15.536H11.7365C9.80799 15.536 8.23853 17.1052 8.23853 19.0337V29.3157C8.23853 30.5406 8.87293 31.6187 9.82911 32.2437V37.3727C9.82911 39.2828 11.3829 40.8366 13.2927 40.8366H40.2584C42.1651 40.8366 43.7165 39.2828 43.7165 37.3727V32.2466C44.6753 31.6222 45.3119 30.5427 45.3119 29.3157V19.0337C45.3119 17.1052 43.7424 15.536 41.8139 15.536ZM19.2296 13.4226C19.2296 11.6112 20.7031 10.1376 22.5145 10.1376H30.707C32.5184 10.1376 33.992 11.6112 33.992 13.4226V15.5339H31.5204V13.4226C31.5204 12.974 31.1553 12.6092 30.707 12.6092H22.5145C22.0662 12.6092 21.7012 12.974 21.7012 13.4226V15.5339H19.2296V13.4226ZM22.9369 13.845H30.2846V15.536H22.9369V13.845ZM42.4807 37.3727C42.4807 38.6013 41.4839 39.6008 40.2584 39.6008H13.2927C12.0641 39.6008 11.0649 38.6013 11.0649 37.3727V32.7471C11.2825 32.7896 11.5067 32.8134 11.7365 32.8134H23.8511V35.7218C23.8511 36.7636 24.6989 37.6111 25.7404 37.6111H27.4679C28.5094 37.6111 29.3572 36.7636 29.3572 35.7218V32.8134H41.8139C42.0421 32.8134 42.2646 32.7898 42.4807 32.7479V37.3727ZM28.1214 31.5776H25.0869V29.5981C25.0869 29.2379 25.3801 28.9446 25.7404 28.9446H27.4679C27.8282 28.9446 28.1214 29.2379 28.1214 29.5981V31.5776ZM28.1214 32.8134V35.7218C28.1214 36.0821 27.8282 36.3753 27.4679 36.3753H25.7404C25.3801 36.3753 25.0869 36.0821 25.0869 35.7218V32.8134H28.1214ZM44.0761 29.3157C44.0761 30.563 43.0612 31.5776 41.8139 31.5776H29.3572V29.5981C29.3572 28.5564 28.5094 27.7089 27.4679 27.7089H25.7404C24.6989 27.7089 23.8511 28.5564 23.8511 29.5981V31.5776H11.7365C10.4892 31.5776 9.4743 30.563 9.4743 29.3157V19.0337C9.4743 17.7864 10.4892 16.7718 11.7365 16.7718H41.8139C43.0612 16.7718 44.0761 17.7864 44.0761 19.0337V29.3157Z" fill="#232F45"/>
</svg>
