<svg width="50" height="50" viewBox="0 0 50 50" fill="none" xmlns="http://www.w3.org/2000/svg">
<path d="M45.6698 20.3914C43.5195 21.0633 40.2941 21.8831 37.1224 21.5471C33.9507 21.2112 31.4375 19.8067 29.9592 17.6833C29.894 17.5939 29.8078 17.522 29.7081 17.474C29.6085 17.4259 29.4985 17.4032 29.388 17.4078C29.2777 17.4153 29.1709 17.4498 29.0771 17.5084C28.9833 17.567 28.9055 17.6479 28.8504 17.7438L28.7832 17.8715C27.8641 19.6573 26.794 21.3614 25.5847 22.965C24.392 24.5554 22.8024 25.8044 20.975 26.5869C19.3292 27.1263 17.6129 27.4206 15.8815 27.4605L14.4636 27.5545C12.0941 27.7839 9.75445 28.2567 7.48185 28.9657C6.17759 29.2716 4.98971 29.9484 4.06153 30.9144C3.85072 31.1634 3.69259 31.4525 3.59673 31.7644C3.50086 32.0762 3.46925 32.4043 3.5038 32.7287C3.63966 33.6673 4.13627 34.5159 4.88805 35.094C5.4401 35.5191 6.06361 35.8423 6.72925 36.0482C7.13915 36.1961 7.55577 36.3036 7.97239 36.4111C11.2289 37.2271 14.5737 37.6379 17.931 37.6341C18.6836 37.6341 19.4362 37.6341 20.1955 37.5736C23.228 37.4269 26.2324 36.9217 29.1461 36.0684L30.1608 35.7458C30.9537 35.4905 31.7802 35.2284 32.5866 35.0739L32.8352 35.0268V37.0898C32.8352 37.268 32.906 37.4389 33.032 37.5649C33.158 37.6909 33.329 37.7617 33.5072 37.7617H45.8378C46.016 37.7617 46.1869 37.6909 46.313 37.5649C46.439 37.4389 46.5098 37.268 46.5098 37.0898V34.0525C46.5098 29.7071 46.5098 25.3617 46.5098 21.0163C46.5059 20.9159 46.4797 20.8177 46.4329 20.7288C46.3861 20.6399 46.32 20.5627 46.2394 20.5027C46.1588 20.4428 46.0658 20.4017 45.9672 20.3824C45.8687 20.3631 45.767 20.3662 45.6698 20.3914ZM45.1994 36.4044H34.1388V34.7782H34.2262C34.6495 34.7244 35.0863 34.6908 35.5164 34.6707H35.7516C36.1995 34.6707 36.6296 34.6707 37.0417 34.6707H37.2971C37.7271 34.6707 38.1572 34.6707 38.5873 34.6707H38.856L40.1328 34.7244L41.4767 34.7782H41.8665H42.8543H44.1982H44.7358H45.186L45.1994 36.4044ZM45.1994 33.441L44.7156 33.4746H44.178H42.8341C42.5116 33.4746 42.1957 33.4746 41.8732 33.4746H41.4834L40.1865 33.4208C39.1517 33.3805 38.1102 33.3335 37.0619 33.3335C35.9252 33.32 34.7889 33.3874 33.6617 33.5351H33.3862C33.0234 33.5888 32.6605 33.656 32.2976 33.7366C31.4375 33.9315 30.5841 34.2003 29.7643 34.4624L28.7698 34.7782C25.9597 35.6243 23.0587 36.1318 20.1283 36.2901C16.1445 36.5002 12.1517 36.1152 8.28149 35.1478C7.89175 35.047 7.52217 34.9462 7.15259 34.8185C6.63654 34.6563 6.15234 34.4062 5.7213 34.0793C5.25275 33.7127 4.9406 33.182 4.84774 32.5943C4.82952 32.4432 4.84281 32.2899 4.88676 32.1442C4.9307 31.9985 5.00436 31.8635 5.10308 31.7476C5.86225 30.994 6.82013 30.472 7.86487 30.2424C10.0516 29.5605 12.3038 29.1101 14.5846 28.8985C15.0415 28.8514 15.4984 28.8178 15.9285 28.7842C17.7891 28.7398 19.6326 28.4182 21.3983 27.83C23.4489 26.9668 25.2342 25.5757 26.5725 23.7982C27.6738 22.3673 28.6517 20.8454 29.4955 19.249C31.4531 21.3427 34.1236 22.6276 36.9813 22.8508C39.7582 23.0598 42.5495 22.7382 45.2062 21.9033C45.2062 25.7469 45.2039 29.5928 45.1994 33.441Z" fill="#232F45"/>
</svg>
