<svg width="238" height="38" viewBox="0 0 238 38" fill="none" xmlns="http://www.w3.org/2000/svg">
<path d="M8.84144 33.5666V33.1401C7.45941 33.1401 6.47254 32.3528 7.06525 30.9419L9.23658 25.725H18.7112L20.5867 30.286C21.2443 31.8606 21.146 33.1411 19.4356 33.1411H18.5471V33.5676H27.7917V33.1411C26.1472 33.1411 25.1269 32.4195 24.2059 30.2537L15.553 9.64453H9.79588V10.071C11.112 10.071 12.2965 10.3995 12.8224 11.7113L13.7434 13.9428L6.57181 31.0723C6.07837 32.2538 4.79563 33.1401 3.70947 33.1401V33.5666H8.84144ZM13.9734 14.436L18.5136 25.2975H9.43416L13.9744 14.436H13.9734Z" fill="black"/>
<mask id="mask0_104_458" style="mask-type:luminance" maskUnits="userSpaceOnUse" x="0" y="23" width="27" height="15">
<path d="M26.4146 23.1033H0.553223V37.31H26.4146V23.1033Z" fill="white"/>
</mask>
<g mask="url(#mask0_104_458)">
<path d="M21.9181 30.9353C22.0753 30.9813 22.2385 31.0166 22.4036 31.0402C22.5668 31.0627 22.7329 31.0755 22.901 31.0755C23.8702 31.0755 24.747 30.6833 25.382 30.0499C26.0169 29.4165 26.4101 28.541 26.4101 27.5733C26.4101 26.6056 26.0169 25.73 25.382 25.0967C24.747 24.4633 23.8692 24.0711 22.901 24.0711C22.3623 24.0711 21.8522 24.1927 21.3951 24.4094C20.9213 24.6349 20.5056 24.9623 20.1782 25.3643C19.1855 26.5654 18.3765 27.8253 17.5685 29.0842C15.9034 31.6784 14.2393 34.2698 10.9887 36.2934C10.6918 36.4552 10.3812 36.5954 10.0598 36.7131C9.31569 36.9856 8.51066 37.1337 7.6722 37.1337C5.75545 37.1337 4.02055 36.3581 2.76435 35.1051C1.50814 33.8511 0.731612 32.1196 0.731612 30.2068C0.731612 28.2939 1.50814 26.5624 2.76435 25.3084C3.95273 24.1231 5.56869 23.3652 7.36257 23.2867C7.22103 23.3887 7.12961 23.5544 7.12961 23.7417C7.12961 24.0515 7.38125 24.3025 7.69186 24.3025C8.00247 24.3025 8.25411 24.0515 8.25411 23.7417C8.25411 23.472 8.06341 23.2465 7.80981 23.1926V23.1044L7.67318 23.1024C5.70827 23.1024 3.92816 23.8976 2.6405 25.1829C1.35283 26.4683 0.555664 28.2439 0.555664 30.2058C0.555664 32.1677 1.35185 33.9433 2.6405 35.2287C3.92816 36.514 5.70729 37.3092 7.67318 37.3092C8.53326 37.3092 9.35796 37.1562 10.1217 36.8778C10.913 36.5886 11.6394 36.1621 12.2704 35.6287C14.7966 33.7276 16.2563 31.4549 17.7179 29.1783C18.5239 27.9223 19.3309 26.6654 20.3159 25.4741L20.248 25.4182L20.3168 25.4741C20.6284 25.0927 21.0226 24.781 21.4728 24.5672C21.9063 24.3613 22.3909 24.2466 22.903 24.2466C23.823 24.2466 24.6565 24.6192 25.2591 25.2212C25.8616 25.8232 26.2352 26.6546 26.2352 27.5723C26.2352 28.49 25.8626 29.3224 25.2591 29.9244C24.6565 30.5264 23.823 30.898 22.903 30.898C22.7418 30.898 22.5835 30.8862 22.4302 30.8647C22.2719 30.8421 22.1186 30.8088 21.9692 30.7656L21.92 30.9353H21.9181Z" fill="black"/>
</g>
<path d="M0 0V0.41081C1.70934 0.41081 2.15167 0.789265 2.84858 2.27367L13.0712 23.3936L13.546 23.0152L20.8247 2.30407C21.3309 0.788285 21.964 0.40983 23.7362 0.40983V0H18.5777V0.41081C20.5711 0.41081 20.8876 0.915744 20.4129 2.27367L14.6528 18.658L6.5828 2.02071C5.91832 0.600038 6.64571 0.379436 8.7669 0.379436V0H0Z" fill="black"/>
<path d="M43.1944 19.3529L44.6875 22.5492H46.1963L41.1243 11.6848H40.3458L35.7407 22.5492H36.4573L37.8256 19.3529H43.1954H43.1944ZM42.8671 18.6539H38.1224L40.3625 13.4232H40.4245L42.8671 18.6539Z" fill="black"/>
<path d="M60.4203 11.6859V19.9894H60.3564L51.7212 11.5006H51.6436V22.5513H52.3582V14.2478H52.422L61.0572 22.7366H61.1349V11.6859H60.4203Z" fill="black"/>
<path d="M72.0124 22.5502V12.5388H76.184V11.6848H66.4263V12.5388H70.5979V22.5492H72.0133L72.0124 22.5502Z" fill="black"/>
<path d="M80.3843 17.1167C80.3843 17.6971 80.4954 18.3158 80.7185 18.9736C80.9426 19.6305 81.2925 20.2384 81.7693 20.7973C82.247 21.3561 82.8534 21.8189 83.5897 22.1866C84.3269 22.5523 85.2086 22.7356 86.2358 22.7356C86.9307 22.7356 87.5608 22.6503 88.126 22.4807C88.6921 22.3091 89.2013 22.0797 89.6515 21.7905C90.1027 21.5003 90.4949 21.1669 90.8271 20.7894C91.1593 20.411 91.4316 20.0129 91.6439 19.5943C91.8572 19.1746 92.0175 18.754 92.1256 18.3295C92.2347 17.9049 92.2897 17.5 92.2897 17.1157C92.2897 16.5372 92.1698 15.9195 91.931 15.2626C91.6931 14.6047 91.3255 13.9969 90.8271 13.439C90.3288 12.8791 89.6977 12.4164 88.9349 12.0497C88.1732 11.682 87.2728 11.4977 86.2358 11.4977C85.1988 11.4977 84.3269 11.6791 83.5897 12.0409C82.8534 12.4017 82.247 12.8595 81.7693 13.4135C81.2925 13.9684 80.9426 14.5753 80.7185 15.2371C80.4954 15.8989 80.3843 16.5254 80.3843 17.1147V17.1167ZM81.9098 17.1167C81.9098 16.3921 82.0209 15.7274 82.244 15.1234C82.4662 14.5175 82.7728 13.9978 83.1611 13.5625C83.5503 13.1282 84.0094 12.7899 84.5372 12.5477C85.067 12.3046 85.643 12.182 86.2653 12.182C86.8875 12.182 87.4576 12.3036 88.0021 12.5477C88.5467 12.7899 89.0244 13.1292 89.4333 13.5625C89.8432 13.9969 90.1666 14.5175 90.4044 15.1234C90.6433 15.7283 90.7632 16.3931 90.7632 17.1167C90.7632 17.8402 90.6433 18.5069 90.4044 19.1119C90.1666 19.7168 89.8432 20.2365 89.4333 20.6728C89.0234 21.1071 88.5467 21.4463 88.0021 21.6905C87.4576 21.9326 86.8786 22.0542 86.2653 22.0542C85.6519 22.0542 85.0661 21.9336 84.5372 21.6905C84.0084 21.4473 83.5503 21.1081 83.1611 20.6728C82.7719 20.2374 82.4662 19.7168 82.244 19.1119C82.0209 18.506 81.9098 17.8412 81.9098 17.1167Z" fill="black"/>
<path d="M106.823 11.6859V19.9894H106.759L98.1236 11.5006H98.0459V22.5513H98.7605V14.2478H98.8244L107.46 22.7366H107.537V11.6859H106.823Z" fill="black"/>
<path d="M115.007 11.6859V22.5503H116.423V11.6859H115.007Z" fill="black"/>
<path d="M122.803 17.1167C122.803 17.6971 122.914 18.3158 123.137 18.9736C123.362 19.6305 123.711 20.2384 124.188 20.7973C124.666 21.3561 125.272 21.8189 126.009 22.1866C126.746 22.5523 127.628 22.7356 128.655 22.7356C129.35 22.7356 129.98 22.6503 130.545 22.4807C131.111 22.3091 131.62 22.0797 132.07 21.7905C132.522 21.5003 132.914 21.1669 133.246 20.7894C133.578 20.411 133.851 20.0129 134.063 19.5943C134.276 19.1746 134.436 18.754 134.545 18.3295C134.654 17.9049 134.709 17.5 134.709 17.1157C134.709 16.5372 134.589 15.9195 134.35 15.2626C134.112 14.6047 133.744 13.9969 133.246 13.439C132.748 12.8791 132.117 12.4164 131.354 12.0497C130.592 11.682 129.692 11.4977 128.655 11.4977C127.618 11.4977 126.746 11.6791 126.009 12.0409C125.272 12.4017 124.666 12.8595 124.188 13.4135C123.711 13.9684 123.362 14.5753 123.137 15.2371C122.914 15.8989 122.803 16.5254 122.803 17.1147V17.1167ZM124.329 17.1167C124.329 16.3921 124.44 15.7274 124.663 15.1234C124.885 14.5175 125.192 13.9978 125.58 13.5625C125.969 13.1282 126.428 12.7899 126.956 12.5477C127.486 12.3046 128.062 12.182 128.684 12.182C129.306 12.182 129.877 12.3036 130.421 12.5477C130.966 12.7899 131.443 13.1292 131.852 13.5625C132.262 13.9969 132.586 14.5175 132.823 15.1234C133.062 15.7283 133.182 16.3931 133.182 17.1167C133.182 17.8402 133.062 18.5069 132.823 19.1119C132.586 19.7168 132.262 20.2365 131.852 20.6728C131.442 21.1071 130.966 21.4463 130.421 21.6905C129.877 21.9326 129.298 22.0542 128.684 22.0542C128.071 22.0542 127.485 21.9336 126.956 21.6905C126.427 21.4473 125.969 21.1081 125.58 20.6728C125.191 20.2374 124.885 19.7168 124.663 19.1119C124.44 18.506 124.329 17.8412 124.329 17.1167Z" fill="black"/>
<path d="M147.623 11.6859L152.181 22.5503H153.115L157.537 11.6859H156.726L153.101 20.6267H153.037L149.303 11.6859H147.623Z" fill="black"/>
<path d="M162.981 11.6858V22.5502H170.015V21.6962H164.396V17.1489H169.22V16.4341H164.396V12.5388H170.015V11.6848H162.981V11.6858Z" fill="black"/>
<path d="M184.239 11.6859V19.9894H184.175L175.54 11.5006H175.462V22.5513H176.177V14.2478H176.24L184.876 22.7366H184.953V11.6859H184.239Z" fill="black"/>
<path d="M191.178 11.6859V18.3589C191.178 18.7834 191.22 19.2521 191.303 19.7639C191.386 20.2757 191.582 20.7522 191.893 21.1914C192.204 21.6316 192.665 21.9993 193.277 22.2944C193.889 22.5886 194.725 22.7356 195.783 22.7356C196.448 22.7356 197.038 22.6317 197.551 22.4248C198.064 22.2179 198.493 21.9336 198.841 21.5708C199.189 21.2091 199.452 20.7875 199.628 20.3061C199.804 19.8256 199.892 19.3109 199.892 18.7618V11.6859H199.208V18.251C199.208 18.4785 199.202 18.7089 199.191 18.9413C199.181 19.1746 199.151 19.407 199.099 19.6403C199.047 19.8737 198.966 20.1041 198.857 20.3325C198.748 20.56 198.59 20.7875 198.382 21.0149C198.01 21.4179 197.59 21.6924 197.123 21.8385C196.656 21.9826 196.168 22.0552 195.659 22.0552C195.223 22.0552 194.837 21.9875 194.5 21.8532C194.162 21.7179 193.843 21.5169 193.543 21.2483C193.304 21.0414 193.122 20.8345 192.999 20.6277C192.874 20.4208 192.78 20.2168 192.719 20.0149C192.657 19.8119 192.621 19.607 192.61 19.4001C192.6 19.1932 192.594 18.9864 192.594 18.7795V11.6859H191.178Z" fill="black"/>
<path d="M215.282 20.5483C214.223 21.5415 212.968 22.0376 211.516 22.0376C210.706 22.0376 209.991 21.8983 209.369 21.6189C208.746 21.3405 208.227 20.9669 207.812 20.5012C207.398 20.0355 207.083 19.4982 206.871 18.8874C206.659 18.2765 206.553 17.6392 206.553 16.9774C206.553 16.2735 206.664 15.6293 206.888 15.045C207.11 14.4606 207.423 13.9567 207.827 13.5311C208.233 13.1066 208.713 12.7752 209.267 12.5379C209.823 12.2997 210.427 12.1801 211.082 12.1801C211.528 12.1801 211.935 12.232 212.303 12.335C212.671 12.4389 212.998 12.5732 213.284 12.7399C213.569 12.9046 213.803 13.0929 213.984 13.3056C214.165 13.5184 214.293 13.7321 214.366 13.9488H215.519C215.364 13.5978 215.163 13.2723 214.919 12.9723C214.676 12.6713 214.373 12.4124 214.01 12.1958C213.646 11.9781 213.221 11.8075 212.732 11.683C212.245 11.5595 211.69 11.4967 211.067 11.4967C210.165 11.4967 209.343 11.6261 208.602 11.885C207.861 12.1428 207.225 12.5125 206.695 12.9939C206.165 13.4753 205.755 14.0537 205.464 14.7322C205.174 15.4107 205.03 16.1686 205.03 17.0059C205.03 17.7304 205.147 18.4373 205.38 19.1266C205.614 19.8149 205.973 20.4247 206.461 20.9571C206.948 21.4895 207.571 21.9189 208.329 22.2464C209.086 22.5719 209.989 22.7347 211.036 22.7347C211.699 22.7347 212.293 22.6719 212.818 22.5484C213.342 22.4248 213.799 22.2719 214.188 22.0905C214.577 21.9101 214.902 21.716 215.161 21.5081C215.421 21.3012 215.618 21.1199 215.753 20.9649L215.286 20.5463L215.282 20.5483Z" fill="black"/>
<path d="M230.205 20.5483C229.146 21.5415 227.891 22.0376 226.439 22.0376C225.629 22.0376 224.914 21.8983 224.291 21.6189C223.669 21.3405 223.15 20.9669 222.735 20.5012C222.321 20.0355 222.006 19.4982 221.794 18.8874C221.581 18.2765 221.476 17.6392 221.476 16.9774C221.476 16.2735 221.587 15.6293 221.81 15.045C222.033 14.4606 222.346 13.9567 222.75 13.5311C223.156 13.1066 223.636 12.7752 224.19 12.5379C224.745 12.2997 225.35 12.1801 226.005 12.1801C226.451 12.1801 226.858 12.232 227.225 12.335C227.594 12.4389 227.92 12.5732 228.206 12.7399C228.491 12.9046 228.725 13.0929 228.907 13.3056C229.088 13.5184 229.216 13.7321 229.289 13.9488H230.442C230.286 13.5978 230.086 13.2723 229.842 12.9723C229.599 12.6713 229.296 12.4124 228.933 12.1958C228.569 11.9781 228.144 11.8075 227.655 11.683C227.167 11.5595 226.613 11.4967 225.99 11.4967C225.088 11.4967 224.266 11.6261 223.525 11.885C222.784 12.1428 222.148 12.5125 221.618 12.9939C221.088 13.4753 220.678 14.0537 220.387 14.7322C220.097 15.4107 219.953 16.1686 219.953 17.0059C219.953 17.7304 220.07 18.4373 220.303 19.1266C220.537 19.8149 220.896 20.4247 221.384 20.9571C221.871 21.4895 222.494 21.9189 223.251 22.2464C224.009 22.5719 224.912 22.7347 225.958 22.7347C226.622 22.7347 227.216 22.6719 227.741 22.5484C228.264 22.4248 228.722 22.2719 229.111 22.0905C229.5 21.9101 229.824 21.716 230.084 21.5081C230.343 21.3012 230.541 21.1199 230.676 20.9649L230.209 20.5463L230.205 20.5483Z" fill="black"/>
<path d="M236.584 11.6859V22.5503H238V11.6859H236.584Z" fill="black"/>
</svg>
