<svg width="25" height="25" viewBox="0 0 25 25" fill="none" xmlns="http://www.w3.org/2000/svg">
<path d="M21.6392 7.02746C21.1748 7.64698 20.6134 8.18739 19.9767 8.62782C19.9767 8.78965 19.9767 8.95148 19.9767 9.12231C19.9818 12.0612 18.8079 14.8792 16.7182 16.9446C14.6284 19.01 11.7976 20.15 8.86043 20.109C7.16237 20.1147 5.48605 19.727 3.9628 18.9762C3.88066 18.9403 3.82769 18.8591 3.828 18.7694V18.6705C3.828 18.5414 3.93261 18.4368 4.06165 18.4368C5.7308 18.3817 7.3404 17.803 8.66272 16.7825C7.15191 16.752 5.79257 15.857 5.16698 14.4808C5.13539 14.4057 5.14522 14.3194 5.19295 14.2533C5.24067 14.1872 5.31938 14.1508 5.40063 14.1572C5.8598 14.2033 6.32356 14.1606 6.76658 14.0313C5.09877 13.6851 3.84559 12.3005 3.66624 10.6058C3.65987 10.5245 3.6963 10.4458 3.76238 10.398C3.82845 10.3503 3.91462 10.3404 3.98976 10.3721C4.43732 10.5696 4.92047 10.6736 5.40962 10.6777C3.94822 9.71852 3.31699 7.89411 3.87293 6.23628C3.93032 6.07519 4.06819 5.95618 4.23588 5.923C4.40356 5.88981 4.57634 5.94734 4.6907 6.07445C6.66277 8.17331 9.37242 9.42402 12.2483 9.56285C12.1747 9.26891 12.1385 8.96682 12.1405 8.66378C12.1674 7.07478 13.1506 5.65927 14.6298 5.07993C16.1089 4.5006 17.7913 4.87209 18.8894 6.0205C19.6378 5.87791 20.3614 5.62651 21.0371 5.27427C21.0866 5.24337 21.1494 5.24337 21.1989 5.27427C21.2298 5.32379 21.2298 5.38658 21.1989 5.4361C20.8716 6.18558 20.3187 6.81418 19.6173 7.23425C20.2315 7.16302 20.8349 7.01813 21.4146 6.8027C21.4634 6.76948 21.5275 6.76948 21.5763 6.8027C21.6172 6.8214 21.6478 6.85717 21.6599 6.90048C21.672 6.94379 21.6644 6.99024 21.6392 7.02746Z" fill="black"/>
</svg>
