<svg width="25" height="25" viewBox="0 0 25 25" fill="none" xmlns="http://www.w3.org/2000/svg">
<path d="M17.1665 6.31006H14.1665C13.6142 6.31006 13.1665 6.75778 13.1665 7.31006V10.3101H17.1665C17.2802 10.3075 17.3881 10.3605 17.4557 10.452C17.5233 10.5435 17.5423 10.6621 17.5065 10.7701L16.7665 12.9701C16.6983 13.172 16.5096 13.3085 16.2965 13.3101H13.1665V20.8101C13.1665 21.0862 12.9426 21.3101 12.6665 21.3101H10.1665C9.89036 21.3101 9.6665 21.0862 9.6665 20.8101V13.3101H8.1665C7.89036 13.3101 7.6665 13.0862 7.6665 12.8101V10.8101C7.6665 10.534 7.89036 10.3101 8.1665 10.3101H9.6665V7.31006C9.6665 5.10092 11.4574 3.31006 13.6665 3.31006H17.1665C17.4426 3.31006 17.6665 3.53392 17.6665 3.81006V5.81006C17.6665 6.0862 17.4426 6.31006 17.1665 6.31006Z" fill="black"/>
</svg>
