<svg width="25" height="25" viewBox="0 0 25 25" fill="none" xmlns="http://www.w3.org/2000/svg">
<path fill-rule="evenodd" clip-rule="evenodd" d="M5.6665 3.31006H19.6665C20.7711 3.31006 21.6665 4.20549 21.6665 5.31006V19.3101C21.6665 20.4147 20.7711 21.3101 19.6665 21.3101H5.6665C4.56193 21.3101 3.6665 20.4147 3.6665 19.3101V5.31006C3.6665 4.20549 4.56193 3.31006 5.6665 3.31006ZM8.6665 18.3101C8.94264 18.3101 9.1665 18.0862 9.1665 17.8101V10.8101C9.1665 10.534 8.94264 10.3101 8.6665 10.3101H7.1665C6.89036 10.3101 6.6665 10.534 6.6665 10.8101V17.8101C6.6665 18.0862 6.89036 18.3101 7.1665 18.3101H8.6665ZM7.9165 9.31006C7.08807 9.31006 6.4165 8.63849 6.4165 7.81006C6.4165 6.98163 7.08807 6.31006 7.9165 6.31006C8.74493 6.31006 9.4165 6.98163 9.4165 7.81006C9.4165 8.63849 8.74493 9.31006 7.9165 9.31006ZM18.1665 18.3101C18.4426 18.3101 18.6665 18.0862 18.6665 17.8101V13.2101C18.699 11.6209 17.5241 10.2646 15.9465 10.0701C14.8435 9.96931 13.7748 10.4845 13.1665 11.4101V10.8101C13.1665 10.534 12.9426 10.3101 12.6665 10.3101H11.1665C10.8904 10.3101 10.6665 10.534 10.6665 10.8101V17.8101C10.6665 18.0862 10.8904 18.3101 11.1665 18.3101H12.6665C12.9426 18.3101 13.1665 18.0862 13.1665 17.8101V14.0601C13.1665 13.2317 13.8381 12.5601 14.6665 12.5601C15.4949 12.5601 16.1665 13.2317 16.1665 14.0601V17.8101C16.1665 18.0862 16.3904 18.3101 16.6665 18.3101H18.1665Z" fill="black"/>
</svg>
