<svg width="25" height="25" viewBox="0 0 25 25" fill="none" xmlns="http://www.w3.org/2000/svg">
<path fill-rule="evenodd" clip-rule="evenodd" d="M16.6665 3.31006H8.6665C5.90508 3.31006 3.6665 5.54864 3.6665 8.31006V16.3101C3.6665 19.0715 5.90508 21.3101 8.6665 21.3101H16.6665C19.4279 21.3101 21.6665 19.0715 21.6665 16.3101V8.31006C21.6665 5.54864 19.4279 3.31006 16.6665 3.31006ZM19.9165 16.3101C19.911 18.1027 18.4591 19.5546 16.6665 19.5601H8.6665C6.87385 19.5546 5.42199 18.1027 5.4165 16.3101V8.31006C5.42199 6.51741 6.87385 5.06555 8.6665 5.06006H16.6665C18.4591 5.06555 19.911 6.51741 19.9165 8.31006V16.3101ZM17.4165 8.56006C17.9688 8.56006 18.4165 8.11234 18.4165 7.56006C18.4165 7.00778 17.9688 6.56006 17.4165 6.56006C16.8642 6.56006 16.4165 7.00778 16.4165 7.56006C16.4165 8.11234 16.8642 8.56006 17.4165 8.56006ZM12.6665 7.81006C10.1812 7.81006 8.1665 9.82478 8.1665 12.3101C8.1665 14.7954 10.1812 16.8101 12.6665 16.8101C15.1518 16.8101 17.1665 14.7954 17.1665 12.3101C17.1692 11.1158 16.6959 9.96963 15.8514 9.12514C15.0069 8.28065 13.8608 7.8074 12.6665 7.81006ZM9.9165 12.3101C9.9165 13.8289 11.1477 15.0601 12.6665 15.0601C14.1853 15.0601 15.4165 13.8289 15.4165 12.3101C15.4165 10.7913 14.1853 9.56006 12.6665 9.56006C11.1477 9.56006 9.9165 10.7913 9.9165 12.3101Z" fill="black"/>
</svg>
