<svg width="63" height="28" viewBox="0 0 63 28" fill="none" xmlns="http://www.w3.org/2000/svg">
<path d="M0.564453 21.31H13.2485V17.754H5.10045V1.29004H0.564453V21.31Z" fill="black"/>
<path d="M21.5869 18.5381C19.2909 18.5381 18.0029 16.8581 18.0029 14.0581V13.8341C18.0029 11.0341 19.3469 9.41008 21.5869 9.41008C23.8549 9.41008 25.1709 11.0901 25.1709 13.8901V14.0861C25.1709 16.8581 23.8549 18.5381 21.5869 18.5381ZM21.5589 21.6181C25.9549 21.6181 29.2869 18.6781 29.2869 14.0581V13.8341C29.2869 9.27008 25.9829 6.33008 21.5869 6.33008C17.1909 6.33008 13.8589 9.32608 13.8589 13.9181V14.1421C13.8589 18.7061 17.1909 21.6181 21.5589 21.6181Z" fill="black"/>
<path d="M37.665 26.7141C42.481 26.7141 45.3649 24.5021 45.3929 20.1621V6.66608H41.361V8.85008C40.521 7.36608 39.0929 6.33008 36.7129 6.33008C33.0729 6.33008 30.2729 9.27008 30.2729 13.4701V13.6661C30.2729 18.0061 33.1009 20.6661 36.6569 20.6661C38.8129 20.6661 40.549 19.3781 41.361 17.9501V20.1621C41.361 22.4581 40.129 23.7461 37.665 23.7461C35.593 23.7461 34.669 22.9061 34.417 21.6181H30.3849C30.7769 24.6421 32.933 26.7141 37.665 26.7141ZM37.861 17.6141C35.845 17.6141 34.417 16.1021 34.417 13.6661V13.4421C34.417 11.0341 35.677 9.41008 37.945 9.41008C40.1569 9.41008 41.4729 10.9221 41.4729 13.4141V13.6101C41.4729 16.1021 39.989 17.6141 37.861 17.6141Z" fill="black"/>
<path d="M54.9619 18.5381C52.6659 18.5381 51.3779 16.8581 51.3779 14.0581V13.8341C51.3779 11.0341 52.7219 9.41008 54.9619 9.41008C57.2299 9.41008 58.5459 11.0901 58.5459 13.8901V14.0861C58.5459 16.8581 57.2299 18.5381 54.9619 18.5381ZM54.9339 21.6181C59.3299 21.6181 62.6619 18.6781 62.6619 14.0581V13.8341C62.6619 9.27008 59.3579 6.33008 54.9619 6.33008C50.5659 6.33008 47.2339 9.32608 47.2339 13.9181V14.1421C47.2339 18.7061 50.5659 21.6181 54.9339 21.6181Z" fill="black"/>
</svg>
