<svg width="16" height="21" viewBox="0 0 16 21" fill="none" xmlns="http://www.w3.org/2000/svg">
<path d="M7.66495 20.7141C12.481 20.7141 15.3649 18.5021 15.3929 14.1621V0.666078H11.361V2.85008C10.521 1.36608 9.09295 0.330078 6.71295 0.330078C3.07295 0.330078 0.272949 3.27008 0.272949 7.47007V7.66607C0.272949 12.0061 3.10095 14.6661 6.65695 14.6661C8.81295 14.6661 10.549 13.3781 11.361 11.9501V14.1621C11.361 16.4581 10.129 17.7461 7.66495 17.7461C5.59295 17.7461 4.66895 16.9061 4.41695 15.6181H0.384949C0.776949 18.6421 2.93295 20.7141 7.66495 20.7141ZM7.86095 11.6141C5.84495 11.6141 4.41695 10.1021 4.41695 7.66607V7.44207C4.41695 5.03407 5.67695 3.41008 7.94495 3.41008C10.1569 3.41008 11.4729 4.92207 11.4729 7.41407V7.61007C11.4729 10.1021 9.98895 11.6141 7.86095 11.6141Z" fill="black"/>
</svg>
