<svg width="238" height="38" viewBox="0 0 238 38" fill="none" xmlns="http://www.w3.org/2000/svg">
<path d="M8.84144 33.5666V33.1401C7.45941 33.1401 6.47254 32.3528 7.06525 30.9419L9.23658 25.725H18.7112L20.5867 30.286C21.2443 31.8606 21.146 33.1411 19.4356 33.1411H18.5471V33.5676H27.7917V33.1411C26.1472 33.1411 25.1269 32.4195 24.2059 30.2537L15.553 9.64453H9.79588V10.071C11.112 10.071 12.2965 10.3995 12.8224 11.7113L13.7434 13.9428L6.57181 31.0723C6.07837 32.2538 4.79563 33.1401 3.70947 33.1401V33.5666H8.84144ZM13.9734 14.436L18.5136 25.2975H9.43416L13.9744 14.436H13.9734Z" fill="black"/>
<mask id="mask0_105_876" style="mask-type:luminance" maskUnits="userSpaceOnUse" x="0" y="23" width="27" height="15">
<path d="M26.4146 23.1033H0.553223V37.31H26.4146V23.1033Z" fill="white"/>
</mask>
<g mask="url(#mask0_105_876)">
<path d="M21.9181 30.9351C22.0753 30.9812 22.2385 31.0165 22.4036 31.04C22.5668 31.0626 22.7329 31.0753 22.901 31.0753C23.8702 31.0753 24.747 30.6832 25.382 30.0498C26.0169 29.4164 26.4101 28.5409 26.4101 27.5732C26.4101 26.6055 26.0169 25.7299 25.382 25.0965C24.747 24.4632 23.8692 24.071 22.901 24.071C22.3623 24.071 21.8522 24.1926 21.3951 24.4092C20.9213 24.6347 20.5056 24.9622 20.1782 25.3642C19.1855 26.5653 18.3765 27.8251 17.5685 29.084C15.9034 31.6783 14.2393 34.2697 10.9887 36.2933C10.6918 36.4551 10.3812 36.5953 10.0598 36.713C9.31569 36.9855 8.51066 37.1336 7.6722 37.1336C5.75545 37.1336 4.02055 36.358 2.76435 35.105C1.50814 33.851 0.731612 32.1195 0.731612 30.2067C0.731612 28.2938 1.50814 26.5623 2.76435 25.3083C3.95273 24.1229 5.56869 23.3651 7.36257 23.2866C7.22103 23.3886 7.12961 23.5543 7.12961 23.7415C7.12961 24.0514 7.38125 24.3024 7.69186 24.3024C8.00247 24.3024 8.25411 24.0514 8.25411 23.7415C8.25411 23.4719 8.06341 23.2464 7.80981 23.1925V23.1043L7.67318 23.1023C5.70827 23.1023 3.92816 23.8974 2.6405 25.1828C1.35283 26.4682 0.555664 28.2438 0.555664 30.2057C0.555664 32.1676 1.35185 33.9432 2.6405 35.2285C3.92816 36.5139 5.70729 37.3091 7.67318 37.3091C8.53326 37.3091 9.35796 37.1561 10.1217 36.8777C10.913 36.5884 11.6394 36.1619 12.2704 35.6286C14.7966 33.7275 16.2563 31.4548 17.7179 29.1782C18.5239 27.9222 19.3309 26.6653 20.3159 25.474L20.248 25.4181L20.3168 25.474C20.6284 25.0926 21.0226 24.7808 21.4728 24.5671C21.9063 24.3612 22.3909 24.2465 22.903 24.2465C23.823 24.2465 24.6565 24.6191 25.2591 25.2211C25.8616 25.8231 26.2352 26.6545 26.2352 27.5722C26.2352 28.4899 25.8626 29.3223 25.2591 29.9243C24.6565 30.5263 23.823 30.8979 22.903 30.8979C22.7418 30.8979 22.5835 30.8861 22.4302 30.8645C22.2719 30.842 22.1186 30.8087 21.9692 30.7655L21.92 30.9351H21.9181Z" fill="black"/>
</g>
<path d="M0 0V0.41081C1.70934 0.41081 2.15167 0.789265 2.84858 2.27367L13.0712 23.3936L13.546 23.0152L20.8247 2.30407C21.3309 0.788285 21.964 0.40983 23.7362 0.40983V0H18.5777V0.41081C20.5711 0.41081 20.8876 0.915744 20.4129 2.27367L14.6528 18.658L6.5828 2.02071C5.91832 0.600038 6.64571 0.379436 8.7669 0.379436V0H0Z" fill="black"/>
<path d="M43.1944 19.3529L44.6875 22.5492H46.1963L41.1243 11.6848H40.3458L35.7407 22.5492H36.4573L37.8256 19.3529H43.1954H43.1944ZM42.8671 18.6539H38.1224L40.3625 13.4232H40.4245L42.8671 18.6539Z" fill="black"/>
<path d="M60.4203 11.6858V19.9893H60.3564L51.7212 11.5005H51.6436V22.5512H52.3582V14.2477H52.422L61.0572 22.7365H61.1349V11.6858H60.4203Z" fill="black"/>
<path d="M72.0124 22.5502V12.5388H76.184V11.6848H66.4263V12.5388H70.5979V22.5492H72.0133L72.0124 22.5502Z" fill="black"/>
<path d="M80.3843 17.1165C80.3843 17.697 80.4954 18.3156 80.7185 18.9735C80.9426 19.6304 81.2925 20.2383 81.7693 20.7972C82.247 21.356 82.8534 21.8188 83.5897 22.1865C84.3269 22.5522 85.2086 22.7355 86.2358 22.7355C86.9307 22.7355 87.5608 22.6502 88.126 22.4806C88.6921 22.309 89.2013 22.0796 89.6515 21.7904C90.1027 21.5001 90.4949 21.1668 90.8271 20.7893C91.1593 20.4109 91.4316 20.0128 91.6439 19.5941C91.8572 19.1745 92.0175 18.7539 92.1256 18.3294C92.2347 17.9048 92.2897 17.4999 92.2897 17.1156C92.2897 16.5371 92.1698 15.9194 91.931 15.2625C91.6931 14.6046 91.3255 13.9967 90.8271 13.4389C90.3288 12.879 89.6977 12.4162 88.9349 12.0496C88.1732 11.6819 87.2728 11.4976 86.2358 11.4976C85.1988 11.4976 84.3269 11.6789 83.5897 12.0407C82.8534 12.4015 82.247 12.8594 81.7693 13.4134C81.2925 13.9683 80.9426 14.5752 80.7185 15.237C80.4954 15.8988 80.3843 16.5253 80.3843 17.1146V17.1165ZM81.9098 17.1165C81.9098 16.392 82.0209 15.7272 82.244 15.1233C82.4662 14.5174 82.7728 13.9977 83.1611 13.5624C83.5503 13.1281 84.0094 12.7898 84.5372 12.5476C85.067 12.3045 85.643 12.1819 86.2653 12.1819C86.8875 12.1819 87.4576 12.3035 88.0021 12.5476C88.5467 12.7898 89.0244 13.129 89.4333 13.5624C89.8432 13.9967 90.1666 14.5174 90.4044 15.1233C90.6433 15.7282 90.7632 16.393 90.7632 17.1165C90.7632 17.8401 90.6433 18.5068 90.4044 19.1118C90.1666 19.7167 89.8432 20.2363 89.4333 20.6726C89.0234 21.107 88.5467 21.4462 88.0021 21.6904C87.4576 21.9325 86.8786 22.0541 86.2653 22.0541C85.6519 22.0541 85.0661 21.9335 84.5372 21.6904C84.0084 21.4472 83.5503 21.108 83.1611 20.6726C82.7719 20.2373 82.4662 19.7167 82.244 19.1118C82.0209 18.5058 81.9098 17.8411 81.9098 17.1165Z" fill="black"/>
<path d="M106.823 11.6858V19.9893H106.759L98.1236 11.5005H98.0459V22.5512H98.7605V14.2477H98.8244L107.46 22.7365H107.537V11.6858H106.823Z" fill="black"/>
<path d="M115.007 11.686V22.5504H116.423V11.686H115.007Z" fill="black"/>
<path d="M122.803 17.1165C122.803 17.697 122.914 18.3156 123.137 18.9735C123.362 19.6304 123.711 20.2383 124.188 20.7972C124.666 21.356 125.272 21.8188 126.009 22.1865C126.746 22.5522 127.628 22.7355 128.655 22.7355C129.35 22.7355 129.98 22.6502 130.545 22.4806C131.111 22.309 131.62 22.0796 132.07 21.7904C132.522 21.5001 132.914 21.1668 133.246 20.7893C133.578 20.4109 133.851 20.0128 134.063 19.5941C134.276 19.1745 134.436 18.7539 134.545 18.3294C134.654 17.9048 134.709 17.4999 134.709 17.1156C134.709 16.5371 134.589 15.9194 134.35 15.2625C134.112 14.6046 133.744 13.9967 133.246 13.4389C132.748 12.879 132.117 12.4162 131.354 12.0496C130.592 11.6819 129.692 11.4976 128.655 11.4976C127.618 11.4976 126.746 11.6789 126.009 12.0407C125.272 12.4015 124.666 12.8594 124.188 13.4134C123.711 13.9683 123.362 14.5752 123.137 15.237C122.914 15.8988 122.803 16.5253 122.803 17.1146V17.1165ZM124.329 17.1165C124.329 16.392 124.44 15.7272 124.663 15.1233C124.885 14.5174 125.192 13.9977 125.58 13.5624C125.969 13.1281 126.428 12.7898 126.956 12.5476C127.486 12.3045 128.062 12.1819 128.684 12.1819C129.306 12.1819 129.877 12.3035 130.421 12.5476C130.966 12.7898 131.443 13.129 131.852 13.5624C132.262 13.9967 132.586 14.5174 132.823 15.1233C133.062 15.7282 133.182 16.393 133.182 17.1165C133.182 17.8401 133.062 18.5068 132.823 19.1118C132.586 19.7167 132.262 20.2363 131.852 20.6726C131.442 21.107 130.966 21.4462 130.421 21.6904C129.877 21.9325 129.298 22.0541 128.684 22.0541C128.071 22.0541 127.485 21.9335 126.956 21.6904C126.427 21.4472 125.969 21.108 125.58 20.6726C125.191 20.2373 124.885 19.7167 124.663 19.1118C124.44 18.5058 124.329 17.8411 124.329 17.1165Z" fill="black"/>
<path d="M147.623 11.686L152.181 22.5504H153.115L157.537 11.686H156.726L153.101 20.6268H153.037L149.303 11.686H147.623Z" fill="black"/>
<path d="M162.981 11.6858V22.5502H170.015V21.6962H164.396V17.1489H169.22V16.4341H164.396V12.5388H170.015V11.6848H162.981V11.6858Z" fill="black"/>
<path d="M184.239 11.6858V19.9893H184.175L175.54 11.5005H175.462V22.5512H176.177V14.2477H176.24L184.876 22.7365H184.953V11.6858H184.239Z" fill="black"/>
<path d="M191.178 11.686V18.359C191.178 18.7835 191.22 19.2522 191.303 19.764C191.386 20.2758 191.582 20.7523 191.893 21.1915C192.204 21.6318 192.665 21.9994 193.277 22.2945C193.889 22.5887 194.725 22.7357 195.783 22.7357C196.448 22.7357 197.038 22.6318 197.551 22.4249C198.064 22.2181 198.493 21.9337 198.841 21.571C199.189 21.2092 199.452 20.7876 199.628 20.3062C199.804 19.8258 199.892 19.311 199.892 18.762V11.686H199.208V18.2512C199.208 18.4786 199.202 18.709 199.191 18.9414C199.181 19.1747 199.151 19.4071 199.099 19.6405C199.047 19.8738 198.966 20.1042 198.857 20.3327C198.748 20.5601 198.59 20.7876 198.382 21.0151C198.01 21.418 197.59 21.6925 197.123 21.8386C196.656 21.9828 196.168 22.0553 195.659 22.0553C195.223 22.0553 194.837 21.9877 194.5 21.8533C194.162 21.718 193.843 21.517 193.543 21.2484C193.304 21.0415 193.122 20.8346 192.999 20.6278C192.874 20.4209 192.78 20.217 192.719 20.015C192.657 19.812 192.621 19.6071 192.61 19.4002C192.6 19.1934 192.594 18.9865 192.594 18.7796V11.686H191.178Z" fill="black"/>
<path d="M215.282 20.5484C214.223 21.5416 212.968 22.0377 211.516 22.0377C210.706 22.0377 209.991 21.8985 209.369 21.619C208.746 21.3406 208.227 20.967 207.812 20.5013C207.398 20.0356 207.083 19.4983 206.871 18.8875C206.659 18.2767 206.553 17.6394 206.553 16.9776C206.553 16.2736 206.664 15.6294 206.888 15.0451C207.11 14.4607 207.423 13.9568 207.827 13.5313C208.233 13.1067 208.713 12.7753 209.267 12.5381C209.823 12.2998 210.427 12.1802 211.082 12.1802C211.528 12.1802 211.935 12.2322 212.303 12.3351C212.671 12.439 212.998 12.5734 213.284 12.74C213.569 12.9048 213.803 13.093 213.984 13.3058C214.165 13.5185 214.293 13.7323 214.366 13.9489H215.519C215.364 13.5979 215.163 13.2724 214.919 12.9724C214.676 12.6714 214.373 12.4126 214.01 12.1959C213.646 11.9782 213.221 11.8076 212.732 11.6831C212.245 11.5596 211.69 11.4968 211.067 11.4968C210.165 11.4968 209.343 11.6262 208.602 11.8851C207.861 12.1429 207.225 12.5126 206.695 12.994C206.165 13.4754 205.755 14.0538 205.464 14.7323C205.174 15.4108 205.03 16.1687 205.03 17.006C205.03 17.7305 205.147 18.4375 205.38 19.1267C205.614 19.815 205.973 20.4248 206.461 20.9572C206.948 21.4896 207.571 21.919 208.329 22.2465C209.086 22.572 209.989 22.7348 211.036 22.7348C211.699 22.7348 212.293 22.672 212.818 22.5485C213.342 22.425 213.799 22.272 214.188 22.0906C214.577 21.9102 214.902 21.7161 215.161 21.5082C215.421 21.3014 215.618 21.12 215.753 20.9651L215.286 20.5464L215.282 20.5484Z" fill="black"/>
<path d="M230.205 20.5484C229.146 21.5416 227.891 22.0377 226.439 22.0377C225.629 22.0377 224.914 21.8985 224.291 21.619C223.669 21.3406 223.15 20.967 222.735 20.5013C222.321 20.0356 222.006 19.4983 221.794 18.8875C221.581 18.2767 221.476 17.6394 221.476 16.9776C221.476 16.2736 221.587 15.6294 221.81 15.0451C222.033 14.4607 222.346 13.9568 222.75 13.5313C223.156 13.1067 223.636 12.7753 224.19 12.5381C224.745 12.2998 225.35 12.1802 226.005 12.1802C226.451 12.1802 226.858 12.2322 227.225 12.3351C227.594 12.439 227.92 12.5734 228.206 12.74C228.491 12.9048 228.725 13.093 228.907 13.3058C229.088 13.5185 229.216 13.7323 229.289 13.9489H230.442C230.286 13.5979 230.086 13.2724 229.842 12.9724C229.599 12.6714 229.296 12.4126 228.933 12.1959C228.569 11.9782 228.144 11.8076 227.655 11.6831C227.167 11.5596 226.613 11.4968 225.99 11.4968C225.088 11.4968 224.266 11.6262 223.525 11.8851C222.784 12.1429 222.148 12.5126 221.618 12.994C221.088 13.4754 220.678 14.0538 220.387 14.7323C220.097 15.4108 219.953 16.1687 219.953 17.006C219.953 17.7305 220.07 18.4375 220.303 19.1267C220.537 19.815 220.896 20.4248 221.384 20.9572C221.871 21.4896 222.494 21.919 223.251 22.2465C224.009 22.572 224.912 22.7348 225.958 22.7348C226.622 22.7348 227.216 22.672 227.741 22.5485C228.264 22.425 228.722 22.272 229.111 22.0906C229.5 21.9102 229.824 21.7161 230.084 21.5082C230.343 21.3014 230.541 21.12 230.676 20.9651L230.209 20.5464L230.205 20.5484Z" fill="black"/>
<path d="M236.584 11.686V22.5504H238V11.686H236.584Z" fill="black"/>
</svg>
