<svg width="25" height="25" viewBox="0 0 25 25" fill="none" xmlns="http://www.w3.org/2000/svg">
<path fill-rule="evenodd" clip-rule="evenodd" d="M5.3335 3.31006H19.3335C20.4381 3.31006 21.3335 4.20549 21.3335 5.31006V19.3101C21.3335 20.4147 20.4381 21.3101 19.3335 21.3101H5.3335C4.22893 21.3101 3.3335 20.4147 3.3335 19.3101V5.31006C3.3335 4.20549 4.22893 3.31006 5.3335 3.31006ZM8.3335 18.3101C8.60964 18.3101 8.8335 18.0862 8.8335 17.8101V10.8101C8.8335 10.534 8.60964 10.3101 8.3335 10.3101H6.8335C6.55736 10.3101 6.3335 10.534 6.3335 10.8101V17.8101C6.3335 18.0862 6.55736 18.3101 6.8335 18.3101H8.3335ZM7.5835 9.31006C6.75507 9.31006 6.0835 8.63849 6.0835 7.81006C6.0835 6.98163 6.75507 6.31006 7.5835 6.31006C8.41193 6.31006 9.0835 6.98163 9.0835 7.81006C9.0835 8.63849 8.41193 9.31006 7.5835 9.31006ZM17.8335 18.3101C18.1096 18.3101 18.3335 18.0862 18.3335 17.8101V13.2101C18.366 11.6209 17.1911 10.2646 15.6135 10.0701C14.5105 9.96931 13.4418 10.4845 12.8335 11.4101V10.8101C12.8335 10.534 12.6096 10.3101 12.3335 10.3101H10.8335C10.5574 10.3101 10.3335 10.534 10.3335 10.8101V17.8101C10.3335 18.0862 10.5574 18.3101 10.8335 18.3101H12.3335C12.6096 18.3101 12.8335 18.0862 12.8335 17.8101V14.0601C12.8335 13.2317 13.5051 12.5601 14.3335 12.5601C15.1619 12.5601 15.8335 13.2317 15.8335 14.0601V17.8101C15.8335 18.0862 16.0574 18.3101 16.3335 18.3101H17.8335Z" fill="black"/>
</svg>
