<svg width="746" height="42" viewBox="0 0 746 42" fill="none" xmlns="http://www.w3.org/2000/svg">
<path d="M27.4684 28.952L32.9708 40.731H38.5311L19.8397 0.693359H16.9708L0 40.731H2.64071L7.68304 28.952H27.472H27.4684ZM26.2621 26.3758H8.77699L17.0324 7.09952H17.2606L26.2621 26.3758Z" fill="#DAE3EA"/>
<path d="M90.9502 0.696562V31.2965H90.7147L58.8922 0.0136719H58.6061V40.7378H61.2395V10.1378H61.475L93.2974 41.4207H93.5836V0.696562H90.9502Z" fill="#DAE3EA"/>
<path d="M133.668 40.7346V3.84043H149.042V0.693359H113.083V3.84043H128.456V40.731H133.672L133.668 40.7346Z" fill="#DAE3EA"/>
<path d="M164.521 20.711C164.521 22.85 164.93 25.1299 165.752 27.5544C166.578 29.9752 167.868 32.2154 169.625 34.2749C171.385 36.3344 173.62 38.0398 176.333 39.3947C179.05 40.7425 182.299 41.4181 186.085 41.4181C188.646 41.4181 190.968 41.1038 193.05 40.4787C195.137 39.8464 197.013 39.0009 198.672 37.935C200.335 36.8655 201.78 35.637 203.005 34.246C204.229 32.8513 205.233 31.3843 206.015 29.8415C206.801 28.2951 207.391 26.745 207.79 25.1805C208.192 23.616 208.395 22.1238 208.395 20.7074C208.395 18.5756 207.953 16.2993 207.073 13.8785C206.196 11.4541 204.841 9.21389 203.005 7.158C201.168 5.09487 198.843 3.38945 196.032 2.03813C193.224 0.683185 189.906 0.00390625 186.085 0.00390625C182.263 0.00390625 179.05 0.672344 176.333 2.00561C173.62 3.33525 171.385 5.02261 169.625 7.06405C167.868 9.10911 166.578 11.3457 165.752 13.7846C164.93 16.2235 164.521 18.5323 164.521 20.7038V20.711ZM170.143 20.711C170.143 18.0409 170.552 15.5911 171.374 13.3654C172.193 11.1325 173.323 9.21751 174.754 7.61326C176.188 6.01262 177.88 4.76607 179.825 3.87362C181.778 2.97755 183.9 2.5259 186.193 2.5259C188.486 2.5259 190.587 2.97394 192.594 3.87362C194.601 4.76607 196.361 6.01623 197.868 7.61326C199.379 9.21389 200.571 11.1325 201.447 13.3654C202.327 15.5948 202.769 18.0445 202.769 20.711C202.769 23.3775 202.327 25.8345 201.447 28.0638C200.571 30.2932 199.379 32.2081 197.868 33.816C196.358 35.4166 194.601 36.6668 192.594 37.5665C190.587 38.4589 188.454 38.907 186.193 38.907C183.933 38.907 181.774 38.4625 179.825 37.5665C177.876 36.6704 176.188 35.4203 174.754 33.816C173.319 32.2118 172.193 30.2932 171.374 28.0638C170.552 25.8309 170.143 23.3812 170.143 20.711Z" fill="#DAE3EA"/>
<path d="M261.951 0.696562V31.2965H261.715L229.893 0.0136719H229.607V40.7378H232.24V10.1378H232.476L264.298 41.4207H264.584V0.696562H261.951Z" fill="#DAE3EA"/>
<path d="M292.115 0.697266V40.7349H297.331V0.697266H292.115Z" fill="#DAE3EA"/>
<path d="M320.844 20.711C320.844 22.85 321.253 25.1299 322.075 27.5544C322.901 29.9752 324.191 32.2154 325.947 34.2749C327.708 36.3344 329.943 38.0398 332.656 39.3947C335.373 40.7425 338.622 41.4181 342.407 41.4181C344.968 41.4181 347.29 41.1038 349.373 40.4787C351.46 39.8464 353.336 39.0009 354.995 37.935C356.658 36.8655 358.103 35.637 359.327 34.246C360.552 32.8513 361.555 31.3843 362.338 29.8415C363.124 28.2951 363.714 26.745 364.113 25.1805C364.515 23.616 364.718 22.1238 364.718 20.7074C364.718 18.5756 364.276 16.2993 363.395 13.8785C362.519 11.4541 361.164 9.21389 359.327 7.158C357.491 5.09487 355.165 3.38945 352.354 2.03813C349.547 0.683185 346.229 0.00390625 342.407 0.00390625C338.586 0.00390625 335.373 0.672344 332.656 2.00561C329.943 3.33525 327.708 5.02261 325.947 7.06405C324.191 9.10911 322.901 11.3457 322.075 13.7846C321.253 16.2235 320.844 18.5323 320.844 20.7038V20.711ZM326.465 20.711C326.465 18.0409 326.875 15.5911 327.697 13.3654C328.516 11.1325 329.646 9.21751 331.077 7.61326C332.511 6.01262 334.203 4.76607 336.148 3.87362C338.1 2.97755 340.223 2.5259 342.516 2.5259C344.809 2.5259 346.91 2.97394 348.917 3.87362C350.924 4.76607 352.684 6.01623 354.191 7.61326C355.702 9.21389 356.893 11.1325 357.77 13.3654C358.65 15.5948 359.092 18.0445 359.092 20.711C359.092 23.3775 358.65 25.8345 357.77 28.0638C356.893 30.2932 355.702 32.2081 354.191 33.816C352.68 35.4166 350.924 36.6668 348.917 37.5665C346.91 38.4589 344.776 38.907 342.516 38.907C340.256 38.907 338.097 38.4625 336.148 37.5665C334.199 36.6704 332.511 35.4203 331.077 33.816C329.642 32.2118 328.516 30.2932 327.697 28.0638C326.875 25.8309 326.465 23.3812 326.465 20.711Z" fill="#DAE3EA"/>
<path d="M412.308 0.697266L429.108 40.7349H432.55L448.843 0.697266H445.855L432.495 33.6458H432.26L418.502 0.697266H412.308Z" fill="#DAE3EA"/>
<path d="M468.908 0.696973V40.7346H494.829V37.5875H474.12V20.8296H491.899V18.1956H474.12V3.84043H494.829V0.693359H468.908V0.696973Z" fill="#DAE3EA"/>
<path d="M547.245 0.696562V31.2965H547.009L515.187 0.0136719H514.901V40.7378H517.534V10.1378H517.77L549.592 41.4207H549.878V0.696562H547.245Z" fill="#DAE3EA"/>
<path d="M572.819 0.697266V25.2885C572.819 26.853 572.971 28.5801 573.279 30.4662C573.583 32.3523 574.307 34.1083 575.452 35.727C576.6 37.3493 578.299 38.7043 580.552 39.7918C582.809 40.8758 585.888 41.4178 589.789 41.4178C592.238 41.4178 594.412 41.0348 596.302 40.2724C598.193 39.51 599.776 38.4622 601.059 37.1253C602.341 35.792 603.308 34.2384 603.956 32.4643C604.605 30.6939 604.931 28.7969 604.931 26.7736V0.697266H602.41V24.8911C602.41 25.7293 602.388 26.5784 602.348 27.4348C602.312 28.2947 602.2 29.151 602.008 30.011C601.816 30.8709 601.519 31.72 601.117 32.5619C600.714 33.4001 600.131 34.2384 599.367 35.0766C597.994 36.5616 596.447 37.5733 594.727 38.1117C593.006 38.6428 591.206 38.9102 589.329 38.9102C587.725 38.9102 586.301 38.6609 585.059 38.1659C583.816 37.6673 582.639 36.9266 581.534 35.9366C580.654 35.1742 579.984 34.4118 579.527 33.6494C579.067 32.887 578.723 32.1355 578.495 31.3912C578.267 30.6433 578.136 29.8881 578.096 29.1257C578.057 28.3633 578.035 27.601 578.035 26.8386V0.697266H572.819Z" fill="#DAE3EA"/>
<path d="M661.647 33.3568C657.745 37.017 653.12 38.8453 647.769 38.8453C644.785 38.8453 642.148 38.3322 639.855 37.3024C637.562 36.2763 635.649 34.8997 634.12 33.1834C632.592 31.4671 631.433 29.4871 630.65 27.2361C629.868 24.9851 629.48 22.6365 629.48 20.1977C629.48 17.6034 629.889 15.2295 630.712 13.0761C631.53 10.9226 632.686 9.06545 634.175 7.49734C635.671 5.93283 637.438 4.71158 639.481 3.83719C641.528 2.95919 643.756 2.51838 646.168 2.51838C647.813 2.51838 649.313 2.70988 650.667 3.08926C652.026 3.47226 653.228 3.96727 654.282 4.58151C655.333 5.18852 656.195 5.88225 656.865 6.66631C657.532 7.45037 658.003 8.23804 658.271 9.03655H662.52C661.947 7.74304 661.208 6.54346 660.31 5.43783C659.415 4.32858 658.296 3.3747 656.959 2.57619C655.619 1.77407 654.051 1.14538 652.25 0.686504C650.454 0.231244 648.411 0 646.114 0C642.789 0 639.76 0.476939 637.029 1.43082C634.298 2.38108 631.954 3.74325 630.002 5.51732C628.049 7.29139 626.539 9.42316 625.467 11.9235C624.398 14.4238 623.865 17.2168 623.865 20.3024C623.865 22.9726 624.296 25.5777 625.155 28.1177C626.017 30.6542 627.343 32.9016 629.14 34.8635C630.936 36.8255 633.229 38.4081 636.022 39.6149C638.815 40.8144 642.14 41.4142 645.998 41.4142C648.443 41.4142 650.631 41.183 652.565 40.7277C654.496 40.2725 656.181 39.7088 657.615 39.0404C659.049 38.3755 660.245 37.6601 661.201 36.8941C662.157 36.1318 662.886 35.4633 663.382 34.8924L661.661 33.3496L661.647 33.3568Z" fill="#DAE3EA"/>
<path d="M716.641 33.3568C712.74 37.017 708.114 38.8453 702.764 38.8453C699.779 38.8453 697.142 38.3322 694.849 37.3024C692.556 36.2763 690.644 34.8997 689.115 33.1834C687.586 31.4671 686.427 29.4871 685.645 27.2361C684.862 24.9851 684.475 22.6365 684.475 20.1977C684.475 17.6034 684.884 15.2295 685.706 13.0761C686.525 10.9226 687.681 9.06545 689.169 7.49734C690.665 5.93283 692.433 4.71158 694.476 3.83719C696.523 2.95919 698.751 2.51838 701.163 2.51838C702.808 2.51838 704.307 2.70988 705.662 3.08926C707.02 3.47226 708.223 3.96727 709.277 4.58151C710.328 5.18852 711.19 5.88225 711.86 6.66631C712.526 7.45037 712.997 8.23804 713.265 9.03655H717.514C716.942 7.74304 716.203 6.54346 715.305 5.43783C714.41 4.32858 713.291 3.3747 711.954 2.57619C710.614 1.77407 709.045 1.14538 707.245 0.686504C705.448 0.231244 703.405 0 701.109 0C697.783 0 694.755 0.476939 692.024 1.43082C689.293 2.38108 686.949 3.74325 684.996 5.51732C683.044 7.29139 681.533 9.42316 680.461 11.9235C679.393 14.4238 678.86 17.2168 678.86 20.3024C678.86 22.9726 679.291 25.5777 680.15 28.1177C681.012 30.6542 682.338 32.9016 684.134 34.8635C685.931 36.8255 688.224 38.4081 691.017 39.6149C693.81 40.8144 697.135 41.4142 700.993 41.4142C703.438 41.4142 705.626 41.183 707.56 40.7277C709.491 40.2725 711.175 39.7088 712.61 39.0404C714.044 38.3755 715.24 37.6601 716.196 36.8941C717.152 36.1318 717.88 35.4633 718.377 34.8924L716.656 33.3496L716.641 33.3568Z" fill="#DAE3EA"/>
<path d="M740.15 0.697266V40.7349H745.366V0.697266H740.15Z" fill="#DAE3EA"/>
</svg>
