<svg width="25" height="25" viewBox="0 0 25 25" fill="none" xmlns="http://www.w3.org/2000/svg">
<path fill-rule="evenodd" clip-rule="evenodd" d="M16.3333 3.31006H8.33325C5.57183 3.31006 3.33325 5.54864 3.33325 8.31006V16.3101C3.33325 19.0715 5.57183 21.3101 8.33325 21.3101H16.3333C19.0947 21.3101 21.3333 19.0715 21.3333 16.3101V8.31006C21.3333 5.54864 19.0947 3.31006 16.3333 3.31006ZM19.5833 16.3101C19.5778 18.1027 18.1259 19.5546 16.3333 19.5601H8.33325C6.5406 19.5546 5.08874 18.1027 5.08325 16.3101V8.31006C5.08874 6.51741 6.5406 5.06555 8.33325 5.06006H16.3333C18.1259 5.06555 19.5778 6.51741 19.5833 8.31006V16.3101ZM17.0833 8.56006C17.6356 8.56006 18.0833 8.11234 18.0833 7.56006C18.0833 7.00778 17.6356 6.56006 17.0833 6.56006C16.531 6.56006 16.0833 7.00778 16.0833 7.56006C16.0833 8.11234 16.531 8.56006 17.0833 8.56006ZM12.3333 7.81006C9.84797 7.81006 7.83325 9.82478 7.83325 12.3101C7.83325 14.7954 9.84797 16.8101 12.3333 16.8101C14.8186 16.8101 16.8333 14.7954 16.8333 12.3101C16.836 11.1158 16.3627 9.96963 15.5182 9.12514C14.6737 8.28065 13.5276 7.8074 12.3333 7.81006ZM9.58325 12.3101C9.58325 13.8289 10.8145 15.0601 12.3333 15.0601C13.8521 15.0601 15.0833 13.8289 15.0833 12.3101C15.0833 10.7913 13.8521 9.56006 12.3333 9.56006C10.8145 9.56006 9.58325 10.7913 9.58325 12.3101Z" fill="black"/>
</svg>
