<svg width="25" height="25" viewBox="0 0 25 25" fill="none" xmlns="http://www.w3.org/2000/svg">
<path fill-rule="evenodd" clip-rule="evenodd" d="M5.37109 3.31006H19.3711C20.4757 3.31006 21.3711 4.20549 21.3711 5.31006V19.3101C21.3711 20.4147 20.4757 21.3101 19.3711 21.3101H5.37109C4.26652 21.3101 3.37109 20.4147 3.37109 19.3101V5.31006C3.37109 4.20549 4.26652 3.31006 5.37109 3.31006ZM8.37109 18.3101C8.64723 18.3101 8.87109 18.0862 8.87109 17.8101V10.8101C8.87109 10.534 8.64723 10.3101 8.37109 10.3101H6.87109C6.59495 10.3101 6.37109 10.534 6.37109 10.8101V17.8101C6.37109 18.0862 6.59495 18.3101 6.87109 18.3101H8.37109ZM7.62109 9.31006C6.79266 9.31006 6.12109 8.63849 6.12109 7.81006C6.12109 6.98163 6.79266 6.31006 7.62109 6.31006C8.44952 6.31006 9.12109 6.98163 9.12109 7.81006C9.12109 8.63849 8.44952 9.31006 7.62109 9.31006ZM17.8711 18.3101C18.1472 18.3101 18.3711 18.0862 18.3711 17.8101V13.2101C18.4036 11.6209 17.2287 10.2646 15.6511 10.0701C14.5481 9.96931 13.4794 10.4845 12.8711 11.4101V10.8101C12.8711 10.534 12.6472 10.3101 12.3711 10.3101H10.8711C10.595 10.3101 10.3711 10.534 10.3711 10.8101V17.8101C10.3711 18.0862 10.595 18.3101 10.8711 18.3101H12.3711C12.6472 18.3101 12.8711 18.0862 12.8711 17.8101V14.0601C12.8711 13.2317 13.5427 12.5601 14.3711 12.5601C15.1995 12.5601 15.8711 13.2317 15.8711 14.0601V17.8101C15.8711 18.0862 16.095 18.3101 16.3711 18.3101H17.8711Z" fill="black"/>
</svg>
