<svg width="51" height="55" viewBox="0 0 51 55" fill="none" xmlns="http://www.w3.org/2000/svg">
<g clip-path="url(#clip0_1_657)">
<path d="M48.6528 9.70588H42.0292C41.3961 9.21765 40.6137 8.94118 39.8014 8.94118C38.4635 8.94118 37.1436 9.18235 35.9132 9.64118C35.5967 4.27647 31.0754 0 25.5508 0C20.0261 0 15.1525 4.59412 15.1525 10.2412V18.7882H13.2592C11.2763 18.7882 9.66366 20.3765 9.66366 22.3294C9.66366 23.3118 10.0698 24.2 10.7268 24.8471C10.0698 25.4882 9.66366 26.3824 9.66366 27.3647C9.66366 28.3471 10.0698 29.2353 10.7268 29.8765C10.0698 30.5176 9.66366 31.4118 9.66366 32.3941C9.66366 34.3471 11.2763 35.9353 13.2592 35.9353H14.9673C14.6149 37.6647 13.0561 38.9765 11.1986 38.9765C9.99215 38.9765 8.8932 39.5706 8.24218 40.5176H2.34723C1.05118 40.5176 0 41.5529 0 42.8294V42.9824C0 44.2588 1.05118 45.2941 2.34723 45.2941H8.97084C9.60394 45.7824 10.3863 46.0588 11.1986 46.0588C12.5723 46.0588 13.9341 45.8 15.1823 45.3235C15.481 50.7059 20.0142 54.9941 25.5508 54.9941C31.0874 54.9941 35.9491 50.4 35.9491 44.7529V35.9294H37.8424C39.8253 35.9294 41.4438 34.3412 41.4438 32.3882C41.4438 31.4059 41.0377 30.5176 40.3748 29.8706C41.0317 29.2294 41.4438 28.3412 41.4438 27.3588C41.4438 26.3765 41.0377 25.4882 40.3748 24.8412C41.0317 24.2 41.4438 23.3059 41.4438 22.3235C41.4438 20.3706 39.8312 18.7824 37.8424 18.7824H36.1103C36.5642 17.1941 38.0514 16.0235 39.8074 16.0235C41.0138 16.0235 42.1068 15.4294 42.7638 14.4882H48.6528C49.9488 14.4882 51 13.4529 51 12.1765V12.0235C51 10.7471 49.9488 9.71177 48.6528 9.71177V9.70588ZM17.2429 10.2353C17.2429 5.72353 20.9698 2.05294 25.5508 2.05294C30.1317 2.05294 33.8586 5.72353 33.8586 10.2353V10.6588C32.6641 11.4118 31.6488 12.3706 30.8425 13.4765V10.2353C30.8425 7.36471 28.4714 5.02353 25.5508 5.02353C22.6302 5.02353 20.259 7.35882 20.259 10.2353V18.7824H17.2429V10.2353ZM22.3495 10.2353C22.3495 8.5 23.7829 7.08235 25.5508 7.08235C27.3187 7.08235 28.7521 8.49412 28.7521 10.2353V18.7824H22.3554V10.2353H22.3495ZM2.09041 42.9824V42.8294C2.09041 42.6882 2.20389 42.5765 2.34723 42.5765H7.60311C7.60311 42.8 7.62701 43.0235 7.67479 43.2412H2.34723C2.20389 43.2412 2.09041 43.1294 2.09041 42.9882V42.9824ZM10.1116 43.5471C9.84284 43.2706 9.69352 42.9059 9.69352 42.5176C9.69352 42.3176 9.73533 42.1235 9.81298 41.9353C10.0459 41.3824 10.5894 41.0294 11.1986 41.0294C12.7157 41.0294 14.1013 40.4647 15.1525 39.5412V43.0941C13.9281 43.6882 12.5723 44.0059 11.1986 44.0059C10.7925 44.0059 10.3983 43.8412 10.1116 43.5529V43.5471ZM33.8527 44.7588C33.8527 49.2706 30.1258 52.9412 25.5448 52.9412C20.9638 52.9412 17.2369 49.2706 17.2369 44.7588V36.2118H20.2531V44.7588C20.2531 47.6353 22.6242 49.9706 25.5388 49.9706C28.4534 49.9706 30.8246 47.6294 30.8246 44.7588V36.2118H33.8407V44.7588H33.8527ZM28.7461 44.7588C28.7461 46.5 27.3127 47.9118 25.5508 47.9118C23.7889 47.9118 22.3554 46.4941 22.3554 44.7588V35.9353H28.7521V44.7588H28.7461ZM39.3415 32.3882C39.3415 33.2059 38.6666 33.8706 37.8304 33.8706H13.2592C12.429 33.8706 11.7541 33.2059 11.7541 32.3882C11.7541 31.5706 12.429 30.9 13.2592 30.9H37.8364C38.6666 30.9 39.3475 31.5647 39.3475 32.3882H39.3415ZM39.3415 27.3588C39.3415 28.1765 38.6666 28.8412 37.8304 28.8412H13.2592C12.429 28.8412 11.7541 28.1765 11.7541 27.3588C11.7541 26.5412 12.429 25.8706 13.2592 25.8706H37.8364C38.6666 25.8706 39.3475 26.5353 39.3475 27.3588H39.3415ZM39.3415 22.3294C39.3415 23.1471 38.6666 23.8176 37.8304 23.8176H13.2592C12.429 23.8176 11.7541 23.1529 11.7541 22.3294C11.7541 21.5059 12.429 20.8471 13.2592 20.8471H29.7913C29.7913 20.8471 29.8033 20.8471 29.8092 20.8471H34.9098C34.9098 20.8471 34.9218 20.8471 34.9277 20.8471H37.8364C38.6666 20.8471 39.3475 21.5118 39.3475 22.3294H39.3415ZM39.8014 13.9647C36.8868 13.9647 34.4499 16.0471 33.9602 18.7824H30.9142C31.2427 16.0059 32.909 13.5176 35.4175 12.1294C36.7374 11.3882 38.2545 10.9941 39.8014 10.9941C40.2075 10.9941 40.6017 11.1588 40.8884 11.4471C41.1631 11.7235 41.3124 12.0882 41.3124 12.4765C41.3124 12.6765 41.2706 12.8706 41.193 13.0529C40.9601 13.6 40.4166 13.9588 39.8074 13.9588L39.8014 13.9647ZM48.9096 12.1706C48.9096 12.3118 48.7961 12.4235 48.6528 12.4235H43.3969C43.3969 12.2 43.373 11.9765 43.3252 11.7588H48.6528C48.7961 11.7588 48.9096 11.8706 48.9096 12.0118V12.1647V12.1706Z" fill="#232F45"/>
</g>
<defs>
<clipPath id="clip0_1_657">
<rect width="51" height="55" fill="white"/>
</clipPath>
</defs>
</svg>
