<svg width="44" height="44" viewBox="0 0 44 44" fill="none" xmlns="http://www.w3.org/2000/svg">
<g clip-path="url(#clip0_12_1165)">
<path d="M33.0593 17.2363L32.5146 17.3844C28.7876 18.3495 26.1453 15.5355 26.0354 15.4208C25.8109 15.1772 25.4668 15.0864 25.1562 15.1867L13.2252 19.1235C11.3474 19.7159 10.0859 21.4359 10.0859 23.4042V24.6751C10.0859 26.0558 11.2088 27.1786 12.5897 27.1786H33.0545C34.4354 27.1786 35.5583 26.0558 35.5583 24.6751V19.1569C35.5583 18.5358 35.2764 17.9577 34.7795 17.5803C34.2825 17.2029 33.6566 17.0787 33.0545 17.2411L33.0593 17.2363ZM33.8907 24.6703C33.8907 25.129 33.518 25.5016 33.0593 25.5016H12.5945C12.1358 25.5016 11.7631 25.129 11.7631 24.6703V23.3995C11.7631 22.1668 12.5562 21.0871 13.7412 20.7097L17.7023 19.4054L18.032 20.3466C18.1515 20.6905 18.4764 20.9055 18.8204 20.9055C18.9112 20.9055 19.0068 20.8912 19.0975 20.8578C19.5324 20.7049 19.7617 20.2271 19.6088 19.7923L19.2887 18.8798L21.6109 18.1154L22.0552 19.176C22.189 19.4961 22.4996 19.6872 22.8293 19.6872C22.9392 19.6872 23.0443 19.6681 23.1542 19.6204C23.5795 19.4436 23.7801 18.9515 23.6033 18.5263L23.2068 17.5851L25.204 16.9258C26.2266 17.8478 29.1078 19.993 32.9494 18.9897L33.4989 18.8416C33.6279 18.8082 33.7235 18.8607 33.7713 18.8942C33.819 18.9276 33.8955 19.0088 33.8955 19.1426V24.6608L33.8907 24.6703Z" fill="#232F45"/>
<path d="M43.669 20.8148C43.6451 20.3562 43.2437 20.0026 42.7898 20.0265C42.3263 20.0504 41.9775 20.447 42.0014 20.9056C42.5413 30.6329 36.0382 39.2947 26.5297 41.502C17.5707 43.5803 8.47306 39.3329 4.28262 31.3161L9.099 32.3528C9.54815 32.4484 9.99252 32.1617 10.0929 31.7126C10.1884 31.2587 9.90173 30.8144 9.45258 30.7189L2.97818 29.3286C2.93518 29.319 2.8874 29.3142 2.84439 29.3142C2.83484 29.3142 2.8205 29.3142 2.81095 29.3142C2.79661 29.3142 2.78228 29.3142 2.76794 29.3142C2.61026 29.3238 2.46214 29.3716 2.33791 29.4576C2.33791 29.4576 2.32835 29.4624 2.32357 29.4671C2.28535 29.4958 2.24712 29.5245 2.21368 29.5627C2.21368 29.5627 2.20412 29.5722 2.20412 29.577C2.17067 29.6105 2.142 29.6487 2.11334 29.6917V29.6965C2.06078 29.7777 2.01777 29.8685 1.99866 29.9688L0.608216 36.4425C0.512653 36.8963 0.799342 37.3407 1.24849 37.4362C1.30583 37.4506 1.36794 37.4553 1.42528 37.4553C1.81231 37.4553 2.15634 37.1878 2.24235 36.796L3.13108 32.6729C6.98706 39.5384 14.2307 43.6997 21.9857 43.6997C23.6198 43.6997 25.2731 43.5134 26.9263 43.1312C37.228 40.7423 44.2758 31.3591 43.6881 20.8148H43.669Z" fill="#232F45"/>
<path d="M1.17112 23.973C1.17112 23.973 1.20457 23.973 1.2189 23.973C1.68238 23.9491 2.03119 23.5526 2.0073 23.0939C1.46259 13.3619 7.97044 4.70003 17.479 2.49754C26.4428 0.414494 35.5356 4.66659 39.7261 12.6835L34.9049 11.6467C34.451 11.5512 34.0066 11.8378 33.911 12.2869C33.8155 12.7408 34.1022 13.1851 34.5513 13.2807L41.0257 14.6757C41.0831 14.6901 41.1452 14.6948 41.2025 14.6948C41.2121 14.6948 41.2264 14.6948 41.236 14.6948C41.2933 14.6948 41.3459 14.6853 41.4032 14.6709C41.4271 14.6662 41.451 14.6566 41.4749 14.6471C41.494 14.6423 41.5083 14.6375 41.5274 14.6327C41.5609 14.6184 41.5895 14.5993 41.6182 14.5849C41.6278 14.5802 41.6421 14.5754 41.6564 14.5658C41.6564 14.5658 41.666 14.5563 41.6708 14.5563C41.6899 14.5467 41.6994 14.5324 41.7186 14.5181C41.7472 14.499 41.7711 14.4751 41.795 14.4512C41.8093 14.4368 41.8237 14.4177 41.838 14.3986C41.8571 14.3747 41.881 14.3508 41.8954 14.327C41.9097 14.3078 41.9192 14.284 41.9288 14.2648C41.9431 14.241 41.9575 14.2123 41.9718 14.1884C41.9814 14.1645 41.9909 14.1359 41.9957 14.1072C42.0005 14.0833 42.01 14.0642 42.0148 14.0403L43.4052 7.56661C43.5008 7.11273 43.2141 6.66841 42.765 6.57286C42.3158 6.47731 41.8715 6.76397 41.7711 7.21306L40.8824 11.3409C36.2237 3.02308 26.5957 -1.33412 17.1015 0.868369C6.79979 3.25718 -0.252771 12.6405 0.334942 23.1847C0.358833 23.629 0.726751 23.973 1.17112 23.973Z" fill="#232F45"/>
</g>
<defs>
<clipPath id="clip0_12_1165">
<rect width="43.4" height="43.4" fill="white" transform="translate(0.300781 0.299805)"/>
</clipPath>
</defs>
</svg>
