<svg width="52" height="62" viewBox="0 0 52 62" fill="none" xmlns="http://www.w3.org/2000/svg">
<g clip-path="url(#clip0_1_629)">
<path d="M48.9583 41.4704H27.6002C27.2828 41.4704 26.9786 41.603 26.7604 41.8285C26.5422 42.0605 26.4298 42.3656 26.443 42.6839C26.4893 43.6321 26.529 44.5737 26.5621 45.5219L26.6546 48.6783C26.8728 56.1448 31.9049 61.9934 38.1139 61.9934C44.323 61.9934 48.912 56.6753 49.5203 49.6199L50.1155 42.7236C50.1419 42.3987 50.0361 42.0804 49.8179 41.8417C49.5997 41.603 49.2889 41.4637 48.9649 41.4637L48.9583 41.4704ZM47.2126 49.4276C46.7101 55.2762 42.7955 59.6791 38.1139 59.6791C33.1679 59.6791 29.1541 54.8186 28.969 48.6186L28.8764 45.4622C28.8632 44.9052 28.8367 44.3482 28.8169 43.7912H47.7019L47.2126 49.4276Z" fill="#232F45"/>
<path d="M37.1551 0.0729084C33.439 -0.351477 29.8881 1.08082 27.1572 4.10457C23.5997 8.03676 22.145 13.9848 23.355 19.6145L23.5534 20.5296C24.6974 25.8742 25.5371 31.4177 26.0463 36.9944C26.0992 37.5912 26.6017 38.0487 27.1968 38.0487H49.4608C50.0626 38.0487 50.5585 37.5912 50.6114 36.9878L51.914 21.889C52.853 10.8947 46.2406 1.10735 37.1551 0.0729084ZM49.5997 21.69L48.3896 35.7279H28.2416C27.7192 30.4164 26.8993 25.1448 25.8082 20.0389L25.6099 19.1238C24.5585 14.2102 25.8016 9.0513 28.8698 5.65622C31.0849 3.20275 33.9349 2.03569 36.8906 2.37387C44.7396 3.26906 50.4395 11.9292 49.5997 21.6834V21.69Z" fill="#232F45"/>
<path d="M11.1551 0H3.90132C1.74568 0 0 1.75722 0 3.9123V57.8954C0 60.0505 1.74568 61.8077 3.90132 61.8077H11.1617C13.3108 61.8077 15.0631 60.0505 15.0631 57.8954V3.9123C15.0565 1.75722 13.3042 0 11.1551 0ZM11.1551 59.4802H3.90132C3.02848 59.4802 2.31434 58.7707 2.31434 57.8888V3.9123C2.31434 3.03701 3.02187 2.32086 3.90132 2.32086H11.1617C12.0346 2.32086 12.7487 3.03037 12.7487 3.9123V4.69476H10.527C9.88555 4.69476 9.36979 5.21198 9.36979 5.85519C9.36979 6.4984 9.88555 7.01561 10.527 7.01561H12.7487V9.70781H10.527C9.88555 9.70781 9.36979 10.225 9.36979 10.8682C9.36979 11.5114 9.88555 12.0287 10.527 12.0287H12.7487V14.7209H8.28535C7.64395 14.7209 7.12818 15.2381 7.12818 15.8813C7.12818 16.5245 7.64395 17.0417 8.28535 17.0417H12.7487V19.7339H10.527C9.88555 19.7339 9.36979 20.2511 9.36979 20.8943C9.36979 21.5375 9.88555 22.0548 10.527 22.0548H12.7487V24.747H10.527C9.88555 24.747 9.36979 25.2642 9.36979 25.9074C9.36979 26.5506 9.88555 27.0678 10.527 27.0678H12.7487V29.76H10.527C9.88555 29.76 9.36979 30.2772 9.36979 30.9204C9.36979 31.5636 9.88555 32.0809 10.527 32.0809H12.7487V34.773H8.28535C7.64395 34.773 7.12818 35.2903 7.12818 35.9335C7.12818 36.5767 7.64395 37.0939 8.28535 37.0939H12.7487V39.7861H10.527C9.88555 39.7861 9.36979 40.3033 9.36979 40.9465C9.36979 41.5897 9.88555 42.107 10.527 42.107H12.7487V44.7991H10.527C9.88555 44.7991 9.36979 45.3164 9.36979 45.9596C9.36979 46.6028 9.88555 47.12 10.527 47.12H12.7487V49.8122H10.527C9.88555 49.8122 9.36979 50.3294 9.36979 50.9726C9.36979 51.6158 9.88555 52.133 10.527 52.133H12.7487V54.8252H8.28535C7.64395 54.8252 7.12818 55.3425 7.12818 55.9857C7.12818 56.6289 7.64395 57.1461 8.28535 57.1461H12.7487V57.9286C12.7487 58.8039 12.0412 59.52 11.1617 59.52L11.1551 59.4802Z" fill="#232F45"/>
</g>
<defs>
<clipPath id="clip0_1_629">
<rect width="52" height="62" fill="white"/>
</clipPath>
</defs>
</svg>
