<svg width="26" height="31" viewBox="0 0 26 31" fill="none" xmlns="http://www.w3.org/2000/svg">
<g clip-path="url(#clip0_12_458)">
<path d="M24.1227 20.3519H13.7722C13.6184 20.3519 13.471 20.4178 13.3653 20.5298C13.2595 20.6451 13.205 20.7966 13.2114 20.9548C13.2339 21.4258 13.2531 21.8936 13.2691 22.3646L13.314 23.9326C13.4197 27.6418 15.8583 30.5472 18.8673 30.5472C21.8763 30.5472 24.1002 27.9053 24.3951 24.4004L24.6835 20.9745C24.6963 20.8131 24.645 20.655 24.5393 20.5364C24.4335 20.4178 24.2829 20.3486 24.1259 20.3486L24.1227 20.3519ZM23.2767 24.3049C23.0332 27.2103 21.1361 29.3976 18.8673 29.3976C16.4704 29.3976 14.5253 26.983 14.4356 23.903L14.3907 22.335C14.3843 22.0583 14.3715 21.7816 14.3619 21.5049H23.5138L23.2767 24.3049Z" fill="#232F45"/>
<path d="M18.4025 -0.21366C16.6016 -0.424483 14.8808 0.287046 13.5573 1.78916C11.8333 3.74258 11.1283 6.6974 11.7147 9.4941L11.8109 9.94869C12.3653 12.6038 12.7722 15.3576 13.019 18.128C13.0446 18.4245 13.2881 18.6518 13.5765 18.6518H24.366C24.6576 18.6518 24.898 18.4245 24.9236 18.1247L25.5549 10.624C26.0099 5.16234 22.8054 0.300223 18.4025 -0.21366ZM24.4333 10.5252L23.8469 17.4988H14.0829C13.8297 14.8602 13.4323 12.2414 12.9036 9.70493L12.8075 9.25034C12.298 6.8094 12.9004 4.24658 14.3873 2.55999C15.4608 1.34116 16.8419 0.761399 18.2743 0.929399C22.078 1.3741 24.8403 5.67622 24.4333 10.5219V10.5252Z" fill="#232F45"/>
<path d="M5.80439 -0.25H2.28908C1.24442 -0.25 0.398438 0.622941 0.398438 1.69353V28.5109C0.398438 29.5815 1.24442 30.4545 2.28908 30.4545H5.80759C6.84905 30.4545 7.69823 29.5815 7.69823 28.5109V1.69353C7.69503 0.622941 6.84584 -0.25 5.80439 -0.25ZM5.80439 29.2982H2.28908C1.86609 29.2982 1.52 28.9458 1.52 28.5076V1.69353C1.52 1.25871 1.86288 0.902941 2.28908 0.902941H5.80759C6.23058 0.902941 6.57667 1.25541 6.57667 1.69353V2.08224H5.49996C5.18913 2.08224 4.93918 2.33918 4.93918 2.65871C4.93918 2.97824 5.18913 3.23518 5.49996 3.23518H6.57667V4.57259H5.49996C5.18913 4.57259 4.93918 4.82953 4.93918 5.14906C4.93918 5.46859 5.18913 5.72553 5.49996 5.72553H6.57667V7.06294H4.41365C4.10281 7.06294 3.85286 7.31988 3.85286 7.63941C3.85286 7.95894 4.10281 8.21588 4.41365 8.21588H6.57667V9.55329H5.49996C5.18913 9.55329 4.93918 9.81024 4.93918 10.1298C4.93918 10.4493 5.18913 10.7062 5.49996 10.7062H6.57667V12.0436H5.49996C5.18913 12.0436 4.93918 12.3006 4.93918 12.6201C4.93918 12.9396 5.18913 13.1966 5.49996 13.1966H6.57667V14.534H5.49996C5.18913 14.534 4.93918 14.7909 4.93918 15.1105C4.93918 15.43 5.18913 15.6869 5.49996 15.6869H6.57667V17.0244H4.41365C4.10281 17.0244 3.85286 17.2813 3.85286 17.6008C3.85286 17.9204 4.10281 18.1773 4.41365 18.1773H6.57667V19.5147H5.49996C5.18913 19.5147 4.93918 19.7716 4.93918 20.0912C4.93918 20.4107 5.18913 20.6676 5.49996 20.6676H6.57667V22.0051H5.49996C5.18913 22.0051 4.93918 22.262 4.93918 22.5815C4.93918 22.9011 5.18913 23.158 5.49996 23.158H6.57667V24.4954H5.49996C5.18913 24.4954 4.93918 24.7524 4.93918 25.0719C4.93918 25.3914 5.18913 25.6484 5.49996 25.6484H6.57667V26.9858H4.41365C4.10281 26.9858 3.85286 27.2427 3.85286 27.5622C3.85286 27.8818 4.10281 28.1387 4.41365 28.1387H6.57667V28.5274C6.57667 28.9622 6.23379 29.318 5.80759 29.318L5.80439 29.2982Z" fill="#232F45"/>
</g>
<defs>
<clipPath id="clip0_12_458">
<rect width="25.2" height="30.8" fill="white" transform="translate(0.398438 0.100586)"/>
</clipPath>
</defs>
</svg>
