<svg width="53" height="53" viewBox="0 0 53 53" fill="none" xmlns="http://www.w3.org/2000/svg">
<g clip-path="url(#clip0_1_649)">
<path d="M48.1756 11.2462C43.2095 4.20599 35.1085 0 26.5028 0C17.8972 0 9.79613 4.20599 4.83004 11.2462C1.67237 15.7186 0 20.9959 0 26.5C0 32.0041 1.67237 37.2814 4.83004 41.7538C4.83004 41.7595 4.84137 41.7708 4.84704 41.7765C4.84704 41.7765 4.84704 41.7765 4.84704 41.7821C9.81314 48.8053 17.9029 53 26.4972 53C35.0915 53 43.2039 48.794 48.17 41.7538C51.3276 37.2814 53 32.0041 53 26.5C53 20.9959 51.3276 15.7186 48.17 11.2462H48.1756ZM50.9988 25.508H39.7231C39.655 21.6591 39.2015 18.0483 38.4249 14.8173C41.6109 14.3752 44.5078 13.763 46.9568 12.9921C49.4342 16.7219 50.8174 21.0186 50.9988 25.508ZM45.7266 11.2916C43.4533 11.9604 40.8059 12.4989 37.909 12.8901C36.6221 8.50267 34.723 4.97123 32.427 2.72086C37.6425 4.0246 42.3365 7.01754 45.7266 11.2972V11.2916ZM15.2611 25.508C15.3348 21.7725 15.811 18.2241 16.5933 15.0667C19.7226 15.4125 23.0674 15.5996 26.4972 15.5996C29.9269 15.5996 33.2717 15.4125 36.401 15.0667C37.189 18.2241 37.6652 21.7725 37.7389 25.508H15.2668H15.2611ZM37.7332 27.492C37.6595 31.2275 37.1833 34.7759 36.3953 37.9333C33.266 37.5875 29.9156 37.4004 26.4915 37.4004C23.0674 37.4004 19.717 37.5875 16.5877 37.9333C15.7997 34.7759 15.3235 31.2275 15.2554 27.492H37.7276H37.7332ZM26.5028 1.98396C30.3578 1.98396 33.8329 6.47337 35.8681 13.1281C32.9089 13.4456 29.7455 13.6156 26.5028 13.6156C23.2601 13.6156 20.0968 13.4456 17.1376 13.1338C19.1727 6.47337 22.6479 1.98963 26.5028 1.98963V1.98396ZM20.5787 2.71519C18.2827 4.96556 16.3836 8.50267 15.0967 12.8844C12.1998 12.4933 9.55236 11.9548 7.27907 11.2859C10.6692 7.0062 15.3631 4.01326 20.5787 2.70952V2.71519ZM6.04321 12.9921C8.49225 13.763 11.3948 14.3809 14.5808 14.8173C13.8041 18.0483 13.3506 21.6648 13.2826 25.508H2.00685C2.18259 21.0186 3.57151 16.7219 6.04888 12.9921H6.04321ZM2.00118 27.492H13.2769C13.345 31.3409 13.7985 34.9517 14.5751 38.1827C11.3891 38.6248 8.49225 39.237 6.03754 40.0079C3.56017 36.2781 2.17692 31.9814 1.99551 27.492H2.00118ZM7.2734 41.7085C9.54669 41.0396 12.1941 40.5011 15.091 40.1099C16.3779 44.4973 18.277 48.0288 20.573 50.2791C15.3575 48.9754 10.6635 45.9825 7.2734 41.7028V41.7085ZM26.4972 51.016C22.6422 51.016 19.1671 46.5266 17.1319 39.8719C20.0911 39.5544 23.2545 39.3901 26.4972 39.3901C29.7399 39.3901 32.9032 39.5601 35.8624 39.8775C33.8273 46.5323 30.3521 51.0217 26.4972 51.0217V51.016ZM32.4213 50.2848C34.7173 48.0344 36.6164 44.4973 37.9033 40.1156C40.8002 40.5067 43.4476 41.0452 45.7209 41.7141C42.3308 45.9938 37.6369 48.9867 32.4213 50.2905V50.2848ZM46.9568 40.0079C44.5078 39.237 41.6052 38.6191 38.4249 38.1827C39.2015 34.9517 39.655 31.3352 39.7231 27.492H50.9988C50.8231 31.9814 49.4342 36.2781 46.9568 40.0079Z" fill="#232F45"/>
</g>
<defs>
<clipPath id="clip0_1_649">
<rect width="53" height="53" fill="white"/>
</clipPath>
</defs>
</svg>
