<svg width="62" height="62" viewBox="0 0 62 62" fill="none" xmlns="http://www.w3.org/2000/svg">
<g clip-path="url(#clip0_1_639)">
<path d="M46.7986 24.1953L46.0205 24.4069C40.6962 25.7856 36.9215 21.7655 36.7645 21.6017C36.4437 21.2537 35.9522 21.124 35.5085 21.2673L18.4642 26.8913C15.7816 27.7376 13.9795 30.1946 13.9795 33.0066V34.8221C13.9795 36.7946 15.5836 38.3985 17.5563 38.3985H46.7918C48.7645 38.3985 50.3686 36.7946 50.3686 34.8221V26.939C50.3686 26.0518 49.9659 25.2259 49.256 24.6867C48.5461 24.1475 47.6519 23.9701 46.7918 24.2021L46.7986 24.1953ZM47.9864 34.8153C47.9864 35.4705 47.4539 36.0029 46.7986 36.0029H17.5631C16.9079 36.0029 16.3754 35.4705 16.3754 34.8153V32.9998C16.3754 31.2389 17.5085 29.6964 19.2014 29.1572L24.8601 27.2939L25.3311 28.6385C25.5017 29.1299 25.9659 29.4371 26.4573 29.4371C26.587 29.4371 26.7236 29.4166 26.8532 29.3688C27.4744 29.1504 27.802 28.4679 27.5836 27.8468L27.1263 26.5432L30.4437 25.4511L31.0785 26.9663C31.2696 27.4236 31.7133 27.6966 32.1843 27.6966C32.3413 27.6966 32.4915 27.6693 32.6485 27.6011C33.256 27.3485 33.5427 26.6456 33.2901 26.0381L32.7236 24.6935L35.5768 23.7517C37.0375 25.0689 41.1536 28.1334 46.6416 26.7002L47.4266 26.4886C47.6109 26.4408 47.7474 26.5159 47.8157 26.5636C47.884 26.6114 47.9932 26.7275 47.9932 26.9186V34.8017L47.9864 34.8153Z" fill="#232F45"/>
<path d="M61.9522 29.3074C61.9181 28.6521 61.3447 28.1471 60.6962 28.1812C60.0341 28.2153 59.5358 28.7818 59.57 29.437C60.3413 43.3331 51.0512 55.7072 37.4676 58.8604C24.6689 61.8294 11.6724 55.7618 5.68601 44.3091L12.5666 45.7902C13.2082 45.9267 13.843 45.5172 13.9863 44.8756C14.1229 44.2272 13.7133 43.5925 13.0717 43.456L3.82253 41.4698C3.76109 41.4562 3.69283 41.4494 3.6314 41.4494C3.61775 41.4494 3.59727 41.4494 3.58362 41.4494C3.56314 41.4494 3.54266 41.4494 3.52218 41.4494C3.29693 41.463 3.08532 41.5313 2.90785 41.6541C2.90785 41.6541 2.8942 41.6609 2.88737 41.6678C2.83276 41.7087 2.77816 41.7497 2.73038 41.8043C2.73038 41.8043 2.71672 41.8179 2.71672 41.8247C2.66894 41.8725 2.62799 41.9271 2.58703 41.9886V41.9954C2.51195 42.1114 2.45051 42.2411 2.42321 42.3844L0.43686 51.6325C0.300341 52.2809 0.709898 52.9157 1.35154 53.0522C1.43345 53.0727 1.52218 53.0795 1.6041 53.0795C2.157 53.0795 2.64846 52.6973 2.77133 52.1376L4.04096 46.2475C9.54949 56.0553 19.8976 62 30.9761 62C33.3106 62 35.6724 61.7338 38.0341 61.1878C52.7509 57.7752 62.8191 44.3705 61.9795 29.3074H61.9522Z" fill="#232F45"/>
<path d="M1.24232 33.8188C1.24232 33.8188 1.2901 33.8188 1.31058 33.8188C1.97269 33.7847 2.47099 33.2182 2.43686 32.563C1.6587 18.66 10.9556 6.28598 24.5392 3.13957C37.3447 0.163789 50.3345 6.23821 56.3208 17.6909L49.4334 16.2098C48.785 16.0733 48.1502 16.4828 48.0136 17.1244C47.8771 17.7728 48.2867 18.4075 48.9283 18.544L58.1775 20.537C58.2594 20.5574 58.3481 20.5643 58.43 20.5643C58.4437 20.5643 58.4642 20.5643 58.4778 20.5643C58.5597 20.5643 58.6348 20.5506 58.7167 20.5301C58.7508 20.5233 58.785 20.5097 58.8191 20.496C58.8464 20.4892 58.8669 20.4824 58.8942 20.4755C58.942 20.4551 58.9829 20.4278 59.0239 20.4073C59.0375 20.4005 59.058 20.3936 59.0785 20.38C59.0785 20.38 59.0921 20.3663 59.099 20.3663C59.1263 20.3527 59.1399 20.3322 59.1672 20.3117C59.2082 20.2844 59.2423 20.2503 59.2764 20.2162C59.2969 20.1957 59.3174 20.1684 59.3379 20.1411C59.3652 20.107 59.3993 20.0729 59.4198 20.0387C59.4403 20.0114 59.4539 19.9773 59.4676 19.95C59.4881 19.9159 59.5085 19.8749 59.529 19.8408C59.5427 19.8067 59.5563 19.7657 59.5631 19.7248C59.57 19.6906 59.5836 19.6633 59.5904 19.6292L61.5768 10.3811C61.7133 9.7327 61.3038 9.09796 60.6621 8.96146C60.0205 8.82495 59.3857 9.23446 59.2423 9.87603L57.9727 15.773C51.3174 3.89034 37.5631 -2.33423 24 0.812182C9.28327 4.22478 -0.791812 17.6294 0.0477785 32.6926C0.0819082 33.3274 0.607506 33.8188 1.24232 33.8188Z" fill="#232F45"/>
</g>
<defs>
<clipPath id="clip0_1_639">
<rect width="62" height="62" fill="white"/>
</clipPath>
</defs>
</svg>
